<?xml version="1.0" encoding="UTF-8" standalone="no"?>
<!-- Created with Inkscape (http://www.inkscape.org/) -->

<svg
   xmlns:dc="http://purl.org/dc/elements/1.1/"
   xmlns:cc="http://creativecommons.org/ns#"
   xmlns:rdf="http://www.w3.org/1999/02/22-rdf-syntax-ns#"
   xmlns:svg="http://www.w3.org/2000/svg"
   xmlns="http://www.w3.org/2000/svg"
   xmlns:sodipodi="http://sodipodi.sourceforge.net/DTD/sodipodi-0.dtd"
   xmlns:inkscape="http://www.inkscape.org/namespaces/inkscape"
   version="1.1"
   id="svg2"
   xml:space="preserve"
   width="816"
   height="1056"
   viewBox="0 0 816 1056"
   sodipodi:docname="logos.svg"
   inkscape:version="0.92.5 (2060ec1f9f, 2020-04-08)"><metadata
     id="metadata8"><rdf:RDF><cc:Work
         rdf:about=""><dc:format>image/svg+xml</dc:format><dc:type
           rdf:resource="http://purl.org/dc/dcmitype/StillImage" /><dc:title></dc:title></cc:Work></rdf:RDF></metadata><defs
     id="defs6"><clipPath
       clipPathUnits="userSpaceOnUse"
       id="clipPath18"><path
         d="M 0,792 H 612 V 0 H 0 Z"
         id="path16"
         inkscape:connector-curvature="0" /></clipPath><clipPath
       clipPathUnits="userSpaceOnUse"
       id="clipPath26"><path
         d="M 43.8208,351.272 H 282.905 V 112.188 H 43.8208 Z"
         id="path24"
         inkscape:connector-curvature="0" /></clipPath><clipPath
       clipPathUnits="userSpaceOnUse"
       id="clipPath216"><path
         d="M 0,792 H 612 V 0 H 0 Z"
         id="path214"
         inkscape:connector-curvature="0" /></clipPath><clipPath
       clipPathUnits="userSpaceOnUse"
       id="clipPath240"><path
         d="M 391.599,295.959 H 525.041 V 178.111 H 391.599 Z"
         id="path238"
         inkscape:connector-curvature="0" /></clipPath><clipPath
       clipPathUnits="userSpaceOnUse"
       id="clipPath256"><path
         d="m 480.272,298.149 h -0.013 -21.692 -0.975 -21.689 -0.02 -0.153 c -0.619,0 -1.177,-0.247 -1.584,-0.649 v 0 L 411.98,285.301 c -0.721,-0.399 -1.137,-1.133 -1.163,-1.901 v 0 l -21.982,-37.496 c -10e-4,-0.002 -0.003,-0.004 -0.004,-0.008 v 0 l -0.015,-0.024 c -0.005,-0.01 -0.011,-0.018 -0.015,-0.027 v 0 c -0.017,-0.031 -0.033,-0.059 -0.046,-0.088 v 0 c -0.013,-0.025 -0.023,-0.049 -0.037,-0.074 v 0 c -0.006,-0.013 -0.012,-0.028 -0.02,-0.042 v 0 c -0.011,-0.028 -0.024,-0.058 -0.036,-0.088 v 0 c -0.008,-0.023 -0.02,-0.047 -0.028,-0.072 v 0 c -0.005,-0.016 -0.01,-0.034 -0.016,-0.051 v 0 c -0.009,-0.03 -0.016,-0.058 -0.026,-0.087 v 0 c -0.006,-0.023 -0.013,-0.045 -0.019,-0.068 v 0 c -0.004,-0.021 -0.011,-0.044 -0.015,-0.065 v 0 c -0.006,-0.026 -0.009,-0.053 -0.015,-0.079 v 0 c -0.004,-0.022 -0.008,-0.046 -0.012,-0.067 v 0 c -0.003,-0.027 -0.007,-0.052 -0.009,-0.078 v 0 c -0.004,-0.023 -0.006,-0.048 -0.007,-0.071 v 0 c -0.002,-0.023 -0.004,-0.046 -0.005,-0.069 v 0 c -0.002,-0.029 -0.002,-0.057 -0.002,-0.087 v 0 c 0,-0.009 -0.002,-0.018 -0.002,-0.029 v 0 -25.493 c 0,-0.009 0.002,-0.018 0.002,-0.026 v 0 c 0,-0.049 0.003,-0.098 0.006,-0.146 v 0 c 0.002,-0.027 0.002,-0.054 0.006,-0.081 v 0 c 0.005,-0.044 0.014,-0.089 0.021,-0.133 v 0 c 0.006,-0.029 0.01,-0.061 0.017,-0.091 v 0 c 0.008,-0.037 0.018,-0.074 0.028,-0.11 v 0 c 0.01,-0.036 0.019,-0.074 0.03,-0.109 v 0 c 0.011,-0.03 0.022,-0.061 0.034,-0.089 v 0 c 0.015,-0.043 0.03,-0.083 0.048,-0.124 v 0 c 0.011,-0.025 0.025,-0.05 0.036,-0.075 v 0 c 0.021,-0.043 0.043,-0.085 0.066,-0.126 v 0 c 0.005,-0.008 0.007,-0.016 0.012,-0.025 v 0 l 22.571,-38.77 c 0.002,-0.002 0.002,-0.002 0.003,-0.004 v 0 c 0.047,-0.081 0.101,-0.158 0.159,-0.233 v 0 c 0.013,-0.017 0.026,-0.032 0.039,-0.049 v 0 c 0.045,-0.055 0.09,-0.107 0.141,-0.158 v 0 c 0.017,-0.018 0.038,-0.036 0.056,-0.056 v 0 c 0.054,-0.051 0.111,-0.102 0.173,-0.149 v 0 c 0.011,-0.008 0.021,-0.019 0.033,-0.027 v 0 c 0.061,-0.045 0.127,-0.088 0.192,-0.127 v 0 l 22.297,-13.278 c 0.007,-0.006 0.016,-0.009 0.025,-0.014 v 0 c 0.034,-0.02 0.069,-0.038 0.104,-0.057 v 0 c 0.017,-0.007 0.034,-0.016 0.049,-0.023 v 0 c 0.091,-0.044 0.186,-0.083 0.284,-0.115 v 0 c 0.001,-0.001 0.005,-0.002 0.009,-0.003 v 0 c 0.021,-0.006 0.04,-0.011 0.061,-0.018 v 0 c 0.027,-0.007 0.054,-0.014 0.079,-0.02 v 0 c 0.052,-0.013 0.104,-0.024 0.158,-0.033 v 0 c 0.019,-0.003 0.039,-0.007 0.058,-0.011 v 0 c 0.02,-0.002 0.041,-0.005 0.062,-0.007 v 0 c 0.076,-0.01 0.152,-0.013 0.23,-0.015 v 0 c 0.008,0 0.015,-0.001 0.022,-0.001 v 0 c 0.005,0 0.008,-0.002 0.008,-0.002 v 0 c 0.01,0 0.014,0.002 0.021,0.002 v 0 h 22.278 c 0.054,0 0.105,0.004 0.156,0.006 v 0 c 0.051,-0.002 0.103,-0.006 0.153,-0.006 v 0 h 22.28 c 0.007,0 0.012,-0.002 0.016,-0.002 v 0 c 0.004,0 0.008,0.002 0.014,0.002 v 0 c 0.006,0 0.013,0.001 0.02,0.001 v 0 c 0.078,0.002 0.156,0.005 0.23,0.015 v 0 c 0.021,0.002 0.043,0.005 0.063,0.007 v 0 c 0.019,0.004 0.037,0.008 0.057,0.011 v 0 c 0.054,0.009 0.106,0.02 0.159,0.033 v 0 c 0.026,0.006 0.052,0.013 0.077,0.02 v 0 c 0.023,0.007 0.042,0.012 0.064,0.018 v 0 c 0.002,0.001 0.004,0.002 0.009,0.003 v 0 c 0.096,0.032 0.191,0.071 0.282,0.115 v 0 c 0.017,0.007 0.034,0.016 0.05,0.023 v 0 c 0.035,0.019 0.07,0.037 0.103,0.057 v 0 c 0.009,0.005 0.019,0.008 0.028,0.014 v 0 l 22.293,13.278 c 0.07,0.039 0.133,0.082 0.195,0.127 v 0 c 0.011,0.008 0.021,0.019 0.029,0.026 v 0 c 0.064,0.048 0.121,0.099 0.176,0.151 v 0 c 0.02,0.019 0.037,0.037 0.056,0.055 v 0 c 0.048,0.051 0.097,0.103 0.141,0.158 v 0 c 0.013,0.017 0.026,0.032 0.041,0.049 v 0 c 0.057,0.075 0.108,0.152 0.155,0.233 v 0 c 0.003,0.002 0.003,0.002 0.003,0.004 v 0 l 22.572,38.77 c 0.004,0.009 0.01,0.017 0.014,0.025 v 0 c 0.024,0.041 0.044,0.083 0.065,0.126 v 0 c 0.013,0.025 0.025,0.05 0.036,0.075 v 0 c 0.017,0.041 0.034,0.081 0.047,0.124 v 0 c 0.013,0.028 0.023,0.059 0.033,0.089 v 0 c 0.014,0.035 0.022,0.073 0.031,0.109 v 0 c 0.011,0.036 0.022,0.073 0.029,0.11 v 0 c 0.005,0.03 0.012,0.061 0.017,0.091 v 0 c 0.008,0.044 0.016,0.089 0.02,0.134 v 0 c 10e-4,0.026 0.003,0.053 0.006,0.079 v 0 c 0.003,0.049 0.006,0.098 0.006,0.147 v 0 c 0,0.008 0.002,0.017 0.002,0.026 v 0 25.493 c 0,0.011 -0.002,0.02 -0.002,0.029 v 0 c 0,0.03 -10e-4,0.058 -10e-4,0.087 v 0 c -0.002,0.023 -0.004,0.046 -0.005,0.069 v 0 c -0.003,0.023 -0.005,0.048 -0.006,0.071 v 0 c -0.004,0.026 -0.006,0.051 -0.01,0.078 v 0 c -0.005,0.022 -0.008,0.045 -0.012,0.067 v 0 c -0.006,0.026 -0.011,0.053 -0.015,0.079 v 0 c -0.007,0.021 -0.01,0.044 -0.017,0.065 v 0 c -0.005,0.023 -0.012,0.045 -0.018,0.068 v 0 c -0.007,0.029 -0.017,0.057 -0.026,0.087 v 0 c -0.006,0.017 -0.011,0.035 -0.017,0.051 v 0 c -0.008,0.025 -0.017,0.049 -0.027,0.072 v 0 c -0.012,0.03 -0.024,0.06 -0.037,0.088 v 0 c -0.005,0.014 -0.01,0.029 -0.017,0.042 v 0 c -0.013,0.025 -0.025,0.049 -0.037,0.074 v 0 c -0.016,0.029 -0.032,0.057 -0.046,0.088 v 0 c -0.007,0.009 -0.009,0.017 -0.017,0.027 v 0 l -0.014,0.024 c -10e-4,0.004 -10e-4,0.006 -0.004,0.008 v 0 l -21.98,37.496 c -0.026,0.768 -0.444,1.502 -1.168,1.901 v 0 L 482.012,297.5 c -0.408,0.402 -0.965,0.649 -1.582,0.649 v 0 z m -60.721,-13.835 16.935,9.322 h 21.106 0.975 21.105 l 16.938,-9.322 -38.53,-7.573 z m 40.941,-51.021 v 39.322 l 41.197,8.096 20.934,-35.712 -27.709,-31.388 z m -66.955,11.706 20.935,35.712 41.195,-8.096 v -39.322 l -34.422,-19.682 z m 103.843,-35.415 25.758,29.179 v -18.915 l -21.97,-37.739 -16.521,-9.839 z m -82.389,-27.475 -21.971,37.739 v 18.915 l 25.76,-29.179 12.73,-37.314 z m 8.517,27.597 34.572,19.767 34.571,-19.767 -13.735,-40.259 h -20.683 c -0.05,0 -0.102,-0.005 -0.153,-0.008 v 0 c -0.051,0.003 -0.102,0.008 -0.156,0.008 v 0 h -20.679 z"
         id="path254"
         inkscape:connector-curvature="0" /></clipPath><linearGradient
       x1="0"
       y1="0"
       x2="1"
       y2="0"
       gradientUnits="userSpaceOnUse"
       gradientTransform="matrix(0,-104.6508,-104.6508,0,458.07928,273.90381)"
       spreadMethod="pad"
       id="linearGradient266"><stop
         style="stop-opacity:1;stop-color:#82cc2a"
         offset="0"
         id="stop262" /><stop
         style="stop-opacity:1;stop-color:#1f6634"
         offset="1"
         id="stop264" /></linearGradient><clipPath
       clipPathUnits="userSpaceOnUse"
       id="clipPath276"><path
         d="M 0,792 H 612 V 0 H 0 Z"
         id="path274"
         inkscape:connector-curvature="0" /></clipPath><clipPath
       clipPathUnits="userSpaceOnUse"
       id="clipPath296"><path
         d="M 392.529,643.114 H 525.302 V 525.856 H 392.529 Z"
         id="path294"
         inkscape:connector-curvature="0" /></clipPath><clipPath
       clipPathUnits="userSpaceOnUse"
       id="clipPath296-1"><path
         d="M 392.529,643.114 H 525.302 V 525.856 H 392.529 Z"
         id="path294-5"
         inkscape:connector-curvature="0" /></clipPath><clipPath
       clipPathUnits="userSpaceOnUse"
       id="clipPath26-9"><path
         d="M 43.8208,351.272 H 282.905 V 112.188 H 43.8208 Z"
         id="path24-7"
         inkscape:connector-curvature="0" /></clipPath></defs><sodipodi:namedview
     pagecolor="#ffffff"
     bordercolor="#666666"
     borderopacity="1"
     objecttolerance="10"
     gridtolerance="10"
     guidetolerance="10"
     inkscape:pageopacity="0"
     inkscape:pageshadow="2"
     inkscape:window-width="1920"
     inkscape:window-height="1055"
     id="namedview4"
     showgrid="false"
     inkscape:zoom="0.89393939"
     inkscape:cx="416.94915"
     inkscape:cy="507.86441"
     inkscape:window-x="1366"
     inkscape:window-y="25"
     inkscape:window-maximized="1"
     inkscape:current-layer="g210" /><g
     id="g10"
     inkscape:groupmode="layer"
     inkscape:label="Adbongo-ZeroWastePig-proofA"
     transform="matrix(1.3333333,0,0,-1.3333333,0,1056)"><g
       id="g72"
       transform="translate(288.6484,579.019)"><path
         d="m 0,0 c 0,69.193 -56.091,125.285 -125.285,125.285 -69.194,0 -125.286,-56.092 -125.286,-125.285 0,-69.193 56.092,-125.286 125.286,-125.286 C -56.091,-125.286 0,-69.193 0,0 Z"
         style="fill:none;stroke:#231f20;stroke-width:3;stroke-linecap:butt;stroke-linejoin:miter;stroke-miterlimit:4;stroke-dasharray:none;stroke-opacity:1"
         id="path74"
         inkscape:connector-curvature="0" /></g><g
       id="g76"
       transform="translate(583.3652,579.019)"><path
         d="m 0,0 c 0,69.193 -56.092,125.285 -125.285,125.285 -69.194,0 -125.286,-56.092 -125.286,-125.285 0,-69.193 56.092,-125.286 125.286,-125.286 C -56.092,-125.286 0,-69.193 0,0 Z"
         style="fill:none;stroke:#231f20;stroke-width:3;stroke-linecap:butt;stroke-linejoin:miter;stroke-miterlimit:4;stroke-dasharray:none;stroke-opacity:1"
         id="path78"
         inkscape:connector-curvature="0" /></g><g
       id="g80"
       transform="translate(145.9072,525.4409)"><path
         d="M 0,0 V -6.895 H -26.307 V 13.778"
         style="fill:#ffffff;fill-opacity:1;fill-rule:nonzero;stroke:#231f20;stroke-width:6;stroke-linecap:butt;stroke-linejoin:miter;stroke-miterlimit:4;stroke-dasharray:none;stroke-opacity:1"
         id="path82"
         inkscape:connector-curvature="0" /></g><g
       id="g84"
       transform="translate(133.2676,515.7959)"><path
         d="M 0,0 V 14.248"
         style="fill:#ffffff;fill-opacity:1;fill-rule:nonzero;stroke:#231f20;stroke-width:6;stroke-linecap:butt;stroke-linejoin:miter;stroke-miterlimit:4;stroke-dasharray:none;stroke-opacity:1"
         id="path86"
         inkscape:connector-curvature="0" /></g><g
       id="g88"
       transform="translate(182.0239,525.4409)"><path
         d="M 0,0 V -6.895 H 26.307 V 13.778"
         style="fill:#ffffff;fill-opacity:1;fill-rule:nonzero;stroke:#231f20;stroke-width:6;stroke-linecap:butt;stroke-linejoin:miter;stroke-miterlimit:4;stroke-dasharray:none;stroke-opacity:1"
         id="path90"
         inkscape:connector-curvature="0" /></g><g
       id="g92"
       transform="translate(194.6641,515.7959)"><path
         d="M 0,0 V 14.248"
         style="fill:#ffffff;fill-opacity:1;fill-rule:nonzero;stroke:#231f20;stroke-width:6;stroke-linecap:butt;stroke-linejoin:miter;stroke-miterlimit:4;stroke-dasharray:none;stroke-opacity:1"
         id="path94"
         inkscape:connector-curvature="0" /></g><g
       id="g96"
       transform="translate(225.3057,580.8521)"><path
         d="m 0,0 c 0,-34.21 -27.732,-57.543 -61.942,-57.543 -34.21,0 -61.943,23.333 -61.943,57.543 0,34.21 27.733,57.543 61.943,57.543 C -27.732,57.543 0,34.21 0,0"
         style="fill:#ffffff;fill-opacity:1;fill-rule:nonzero;stroke:none"
         id="path98"
         inkscape:connector-curvature="0" /></g><g
       id="g100"
       transform="translate(225.3057,580.8521)"><path
         d="m 0,0 c 0,-34.21 -27.732,-57.543 -61.942,-57.543 -34.21,0 -61.943,23.333 -61.943,57.543 0,34.21 27.733,57.543 61.943,57.543 C -27.732,57.543 0,34.21 0,0 Z"
         style="fill:none;stroke:#231f20;stroke-width:6;stroke-linecap:butt;stroke-linejoin:miter;stroke-miterlimit:4;stroke-dasharray:none;stroke-opacity:1"
         id="path102"
         inkscape:connector-curvature="0" /></g><g
       id="g104"
       transform="translate(144.7427,623.7935)"><path
         d="m 0,0 c 5.721,2.427 12.014,3.77 18.621,3.77 6.449,0 12.601,-1.28 18.212,-3.599"
         style="fill:#ffffff;fill-opacity:1;fill-rule:nonzero;stroke:#231f20;stroke-width:6;stroke-linecap:butt;stroke-linejoin:miter;stroke-miterlimit:4;stroke-dasharray:none;stroke-opacity:1"
         id="path106"
         inkscape:connector-curvature="0" /></g><g
       id="g108"
       transform="translate(192.708,598.1108)"><path
         d="m 0,0 v 19.829 c 0,0 9.756,0.393 17.823,-9.378"
         style="fill:none;stroke:#231f20;stroke-width:6;stroke-linecap:butt;stroke-linejoin:miter;stroke-miterlimit:4;stroke-dasharray:none;stroke-opacity:1"
         id="path110"
         inkscape:connector-curvature="0" /></g><g
       id="g112"
       transform="translate(214.2871,594.0459)"><path
         d="m 0,0 c 0,-2.147 -1.741,-3.889 -3.889,-3.889 -2.147,0 -3.888,1.742 -3.888,3.889 0,2.147 1.741,3.889 3.888,3.889 C -1.741,3.889 0,2.147 0,0"
         style="fill:#231f20;fill-opacity:1;fill-rule:nonzero;stroke:none"
         id="path114"
         inkscape:connector-curvature="0" /></g><g
       id="g116"
       transform="translate(221.7256,590.415)"><path
         d="M 0,0 H 19.125 V -19.126 H 0"
         style="fill:#ffffff;fill-opacity:1;fill-rule:nonzero;stroke:#231f20;stroke-width:6;stroke-linecap:butt;stroke-linejoin:miter;stroke-miterlimit:4;stroke-dasharray:none;stroke-opacity:1"
         id="path118"
         inkscape:connector-curvature="0" /></g><g
       id="g120"
       transform="translate(101.4204,578.7539)"><path
         d="m 0,0 c 0,0 -4.941,-10.811 -13.094,-7.465 -10.548,4.329 1.656,23.934 4.992,16.118 3.375,-7.907 -13.127,-21.922 -18.435,-4.551"
         style="fill:none;stroke:#231f20;stroke-width:6;stroke-linecap:butt;stroke-linejoin:miter;stroke-miterlimit:4;stroke-dasharray:none;stroke-opacity:1"
         id="path122"
         inkscape:connector-curvature="0" /></g><g
       id="g278"
       transform="translate(479.18886,677.08552)"><path
         d="m 0,0 -17.279,-17.277 c 20.2,-0.934 39.053,-9.24 53.449,-23.634 15.297,-15.298 23.722,-35.637 23.722,-57.272 0,-10.967 -2.17,-21.601 -6.298,-31.416 l 6.347,-23.688 27.652,7.409 c 0.218,0.498 0.44,0.992 0.653,1.494 6.191,14.643 9.332,30.188 9.332,46.201 0,16.015 -3.141,31.559 -9.332,46.203 -5.98,14.135 -14.534,26.826 -25.429,37.718 C 51.924,-3.368 39.233,5.187 25.098,11.166 10.642,17.282 -4.695,20.413 -20.491,20.491 Z"
         style="fill:#110f0d;fill-opacity:1;fill-rule:nonzero;stroke:none"
         id="path280"
         inkscape:connector-curvature="0" /></g><g
       id="g282"
       transform="translate(531.41446,510.43612)"><path
         d="m 0,0 -6.194,23.121 c -2.873,-4.233 -6.163,-8.228 -9.862,-11.926 -15.297,-15.298 -35.639,-23.722 -57.271,-23.722 -21.638,0 -41.976,8.424 -57.273,23.722 -3.006,3.005 -5.742,6.208 -8.206,9.575 l -24.267,6.504 -7.281,-27.178 c 3.894,-5.517 8.267,-10.712 13.102,-15.549 10.896,-10.894 23.587,-19.449 37.72,-25.428 14.645,-6.194 30.189,-9.335 46.205,-9.335 16.012,0 31.556,3.141 46.199,9.335 14.136,5.979 26.826,14.534 37.72,25.428 6.995,6.995 13.024,14.736 18.026,23.122 z"
         style="fill:#110f0d;fill-opacity:1;fill-rule:nonzero;stroke:none"
         id="path284"
         inkscape:connector-curvature="0" /></g><g
       id="g286"
       transform="translate(353.19566,523.33842)"><path
         d="m 0,0 7.43,27.733 24.029,-6.44 c -4.952,10.594 -7.563,22.231 -7.563,34.271 0,21.635 8.424,41.974 23.723,57.272 12.319,12.319 27.906,20.177 44.805,22.772 l 18.14,18.139 -19.676,19.678 C 79.808,172.126 69.021,169.284 58.687,164.913 44.554,158.935 31.862,150.379 20.967,139.485 10.075,128.593 1.522,115.902 -4.458,101.767 c -6.193,-14.643 -9.335,-30.188 -9.335,-46.203 0,-16.013 3.142,-31.558 9.335,-46.201 C -3.105,6.165 -1.616,3.046 0,0"
         style="fill:#110f0d;fill-opacity:1;fill-rule:nonzero;stroke:none"
         id="path288"
         inkscape:connector-curvature="0" /></g><g
       transform="translate(-0.59144238,-0.12004969)"
       id="g290"><g
         id="g292" /><g
         id="g304"><g
           clip-path="url(#clipPath296-1)"
           id="g302"
           style="opacity:0.11000103"><g
             transform="translate(502.4863,530.8096)"
             id="g300"><path
               d="M 0,0 -0.42,-0.715 -41.408,7.34 V 46.465 L -7.159,66.048 20.41,34.819 19.439,33.165 c 0.5,0.017 0.998,0.002 1.492,-0.041 0.15,0.416 0.3,0.832 0.452,1.249 0.01,0.029 0.02,0.061 0.028,0.091 -0.041,0.97 0.04,1.945 0.249,2.928 0.334,0.922 0.668,1.846 1.002,2.768 0.046,0.092 0.105,0.177 0.154,0.267 -0.805,0.802 -1.423,1.651 -1.893,2.562 v -1.966 l -25.63,29.034 -12.668,37.126 1.562,-0.93 c -0.612,1.275 -0.996,2.699 -1.077,4.251 -0.005,0.115 0.002,0.228 0,0.343 -1.499,0.254 -3.009,0.442 -4.519,0.63 -0.876,0.109 -1.749,0.404 -2.58,0.828 -0.095,-0.786 -0.266,-1.562 -0.521,-2.313 h 1.432 L -9.411,69.935 -43.81,50.267 -78.208,69.935 -64.54,109.992 h 1.173 c -0.208,0.458 -0.379,0.931 -0.524,1.413 -0.869,-0.503 -1.807,-0.961 -2.881,-1.39 -1.306,-0.523 -2.594,-0.81 -3.888,-0.951 -0.232,-0.951 -0.582,-1.875 -1.038,-2.746 l 1.451,0.865 -12.666,-37.126 -25.631,-29.034 v 6.25 c -0.364,-0.308 -0.731,-0.588 -1.095,-0.826 -0.011,-0.008 -0.02,-0.012 -0.032,-0.02 0.101,-1.906 0.112,-3.805 -0.023,-5.721 -0.05,-0.673 -0.142,-1.335 -0.264,-1.984 0.671,-1.321 1.095,-2.808 1.18,-4.439 0.002,-0.027 -0.002,-0.054 0,-0.082 0.287,0.143 0.575,0.282 0.874,0.402 l -0.127,0.216 27.571,31.229 34.25,-19.583 V 7.34 l -40.99,-8.055 -0.743,1.269 c -0.252,-0.174 -0.509,-0.336 -0.776,-0.488 1.49,-1.155 2.942,-2.355 4.438,-3.548 0.201,-0.16 0.629,-0.439 0.951,-0.648 0.178,-0.098 0.351,-0.205 0.532,-0.299 0.357,-0.017 0.707,-0.047 1.055,-0.093 l -0.404,0.223 38.337,7.533 38.338,-7.533 -1.123,-0.619 c 1.103,-0.034 2.207,-0.059 3.301,-0.003 0.393,0.405 0.739,0.763 0.831,0.867 0.758,0.862 1.505,1.732 2.248,2.607 0.165,0.193 0.332,0.383 0.494,0.575 C 0.175,-0.585 0.08,-0.295 0,0"
               style="fill:#110f0d;fill-opacity:1;fill-rule:nonzero;stroke:none"
               id="path298"
               inkscape:connector-curvature="0" /></g></g></g></g><g
       id="g306"
       transform="translate(458.56966,640.68212)"><path
         d="M 0,0 H 21 L 37.854,-9.275 -0.484,-16.81 -38.822,-9.275 -21.97,0 h 21 z M 63.735,-48.393 36.166,-79.624 1.917,-60.041 v 39.125 l 40.988,8.056 z m -107.61,35.533 40.99,-8.056 v -39.125 l -34.25,-19.583 -27.571,31.231 z m 0.517,-98.109 -21.861,37.55 v 18.821 l 25.631,-29.033 12.666,-37.127 z m 43.026,-12.597 c -0.051,0 -0.102,-0.006 -0.152,-0.009 -0.05,0.003 -0.103,0.009 -0.157,0.009 h -20.574 l -13.668,40.057 34.399,19.668 34.398,-19.668 -13.667,-40.057 z m 64.58,50.147 -21.86,-37.55 -16.438,-9.789 12.668,37.127 25.63,29.033 z m 4.492,24.758 c 0,0.011 -10e-4,0.02 -10e-4,0.03 0,0.029 -0.002,0.057 -0.002,0.085 -0.003,0.024 -0.005,0.046 -0.006,0.069 -0.002,0.023 -0.002,0.048 -0.005,0.071 -0.004,0.026 -0.006,0.052 -0.011,0.077 -0.005,0.023 -0.008,0.044 -0.012,0.067 -0.006,0.027 -0.009,0.054 -0.015,0.079 -0.004,0.021 -0.009,0.043 -0.014,0.064 -0.007,0.024 -0.013,0.046 -0.021,0.069 -0.006,0.029 -0.013,0.056 -0.024,0.086 -0.007,0.017 -0.012,0.034 -0.018,0.051 -0.007,0.024 -0.017,0.049 -0.026,0.072 -0.012,0.029 -0.023,0.059 -0.038,0.088 -0.005,0.013 -0.011,0.027 -0.017,0.04 -0.011,0.025 -0.023,0.05 -0.036,0.074 -0.015,0.029 -0.031,0.057 -0.047,0.087 -0.005,0.009 -0.009,0.018 -0.015,0.027 l -0.014,0.025 c -0.002,0.002 -0.002,0.006 -0.005,0.008 l -21.87,37.308 c -0.026,0.765 -0.44,1.495 -1.16,1.891 L 23.328,3.846 C 22.923,4.245 22.367,4.492 21.753,4.492 H 21.598 21.584 0 -0.97 -22.551 -22.57 -22.723 c -0.615,0 -1.171,-0.247 -1.575,-0.646 L -46.353,-8.293 c -0.717,-0.396 -1.132,-1.126 -1.159,-1.891 l -21.871,-37.308 c -0.001,-0.002 -0.004,-0.006 -0.004,-0.008 l -0.015,-0.025 c -0.006,-0.009 -0.01,-0.018 -0.015,-0.027 -0.017,-0.03 -0.032,-0.058 -0.046,-0.087 -0.013,-0.024 -0.023,-0.049 -0.037,-0.074 -0.007,-0.013 -0.012,-0.027 -0.019,-0.04 -0.011,-0.029 -0.024,-0.059 -0.036,-0.088 -0.008,-0.023 -0.019,-0.048 -0.027,-0.072 -0.006,-0.017 -0.012,-0.034 -0.017,-0.051 -0.007,-0.03 -0.016,-0.057 -0.026,-0.086 -0.007,-0.023 -0.013,-0.045 -0.019,-0.069 -0.004,-0.021 -0.01,-0.043 -0.015,-0.064 -0.005,-0.025 -0.009,-0.052 -0.014,-0.079 -0.005,-0.023 -0.009,-0.045 -0.012,-0.067 -0.003,-0.025 -0.008,-0.051 -0.01,-0.077 -0.002,-0.023 -0.004,-0.048 -0.006,-0.071 -0.002,-0.023 -0.005,-0.045 -0.005,-0.069 -10e-4,-0.028 -10e-4,-0.056 -0.002,-0.085 0,-0.01 -0.003,-0.019 -0.003,-0.03 v -25.365 c 0,-0.009 0.003,-0.017 0.003,-0.026 0.001,-0.049 0.002,-0.097 0.006,-0.145 0.002,-0.027 0.003,-0.053 0.007,-0.08 0.005,-0.044 0.011,-0.089 0.019,-0.133 0.006,-0.03 0.011,-0.061 0.016,-0.09 0.009,-0.037 0.019,-0.074 0.028,-0.111 0.012,-0.036 0.02,-0.073 0.031,-0.108 0.01,-0.03 0.022,-0.06 0.033,-0.089 0.015,-0.042 0.032,-0.082 0.049,-0.122 0.011,-0.026 0.024,-0.05 0.035,-0.075 0.021,-0.043 0.043,-0.085 0.065,-0.126 0.006,-0.008 0.009,-0.016 0.013,-0.024 l 22.459,-38.577 c 0.001,-0.002 0.001,-0.002 0.002,-0.003 0.048,-0.081 0.1,-0.158 0.158,-0.233 0.013,-0.016 0.027,-0.031 0.04,-0.048 0.043,-0.054 0.089,-0.107 0.14,-0.157 0.017,-0.018 0.037,-0.037 0.055,-0.056 0.054,-0.052 0.112,-0.102 0.172,-0.148 0.011,-0.009 0.02,-0.019 0.033,-0.026 0.061,-0.046 0.125,-0.089 0.192,-0.128 l 22.184,-13.211 c 0.008,-0.006 0.017,-0.009 0.026,-0.014 0.033,-0.019 0.068,-0.038 0.102,-0.057 0.018,-0.007 0.034,-0.016 0.051,-0.023 0.09,-0.043 0.184,-0.082 0.28,-0.114 0.002,-10e-4 0.006,-0.003 0.01,-0.004 0.022,-0.005 0.041,-0.01 0.061,-0.016 0.027,-0.008 0.053,-0.015 0.079,-0.021 0.052,-0.012 0.102,-0.024 0.157,-0.032 0.018,-0.003 0.038,-0.007 0.058,-0.012 0.02,-0.002 0.041,-0.005 0.061,-0.007 0.074,-0.009 0.151,-0.013 0.23,-0.015 0.005,0 0.014,-0.001 0.022,-0.001 0.005,0 0.007,-0.001 0.007,-0.001 0.01,0 0.014,0.001 0.02,0.001 h 22.166 c 0.054,0 0.107,0.004 0.157,0.007 0.05,-0.003 0.101,-0.007 0.152,-0.007 h 22.168 c 0.006,0 0.013,-0.001 0.017,-0.001 0.003,0 0.008,0.001 0.013,0.001 0.007,0 0.013,0.001 0.021,0.001 0.077,0.002 0.154,0.006 0.23,0.015 0.02,0.002 0.04,0.005 0.061,0.007 0.018,0.005 0.038,0.009 0.057,0.012 0.053,0.008 0.106,0.02 0.158,0.032 0.025,0.006 0.052,0.013 0.077,0.021 0.021,0.006 0.043,0.011 0.063,0.016 0.002,10e-4 0.004,0.003 0.008,0.004 0.097,0.032 0.191,0.071 0.282,0.114 0.016,0.007 0.033,0.016 0.048,0.023 0.036,0.018 0.07,0.037 0.104,0.057 0.009,0.005 0.019,0.008 0.027,0.014 l 22.183,13.211 c 0.068,0.039 0.131,0.082 0.193,0.128 0.011,0.007 0.02,0.017 0.028,0.025 0.064,0.047 0.122,0.097 0.177,0.15 0.018,0.018 0.036,0.037 0.056,0.055 0.048,0.05 0.095,0.103 0.139,0.157 0.014,0.017 0.027,0.032 0.039,0.048 0.058,0.075 0.109,0.152 0.157,0.233 0.003,0.001 0.003,0.001 0.003,0.003 l 22.458,38.577 c 0.005,0.008 0.009,0.016 0.014,0.024 0.023,0.041 0.043,0.083 0.065,0.126 0.011,0.025 0.024,0.049 0.036,0.075 0.017,0.04 0.034,0.08 0.047,0.122 0.011,0.029 0.022,0.059 0.033,0.089 0.013,0.035 0.021,0.072 0.031,0.108 0.011,0.037 0.022,0.074 0.027,0.111 0.007,0.029 0.012,0.059 0.018,0.09 0.007,0.044 0.016,0.089 0.022,0.133 0.001,0.027 0.001,0.053 0.003,0.079 0.003,0.049 0.008,0.097 0.008,0.146 0,0.009 10e-4,0.017 10e-4,0.026 z"
         style="fill:#110f0d;fill-opacity:1;fill-rule:nonzero;stroke:none"
         id="path308"
         inkscape:connector-curvature="0" /></g><text
       transform="matrix(1,0,0,-1,125.2603,579.9346)"
       style="font-variant:normal;font-weight:bold;font-stretch:condensed;font-size:16.49869919px;font-family:'DIN Condensed';-inkscape-font-specification:DINCondensed-Bold;writing-mode:lr-tb;fill:#231f20;fill-opacity:1;fill-rule:nonzero;stroke:none"
       id="text128"><tspan
         x="0 7.1439371 14.898326 23.576643 32.254959 35.323715 46.260704 54.625546 62.973888 70.101326"
         y="0"
         sodipodi:role="line"
         id="tspan124">ZERO WASTE</tspan><tspan
         x="5.4610696 13.825911 22.207251 30.57209 39.250408 47.61525 55.980087 64.344933"
         y="14.172383"
         sodipodi:role="line"
         id="tspan126">ADVOCACY</tspan></text>
<text
       transform="matrix(-0.95337225,0.30179688,0.30179688,0.95337225,144.8188,498.6284)"
       style="font-variant:normal;font-weight:500;font-stretch:normal;font-size:17.37957001px;font-family:Futura;-inkscape-font-specification:Futura-Medium;writing-mode:lr-tb;fill:#231f20;fill-opacity:1;fill-rule:nonzero;stroke:none"
       id="text132"><tspan
         x="0"
         y="0"
         id="tspan130">*</tspan></text>
<text
       transform="matrix(-0.84768913,0.5304933,0.5304933,0.84768913,124.8359,506.3784)"
       style="font-variant:normal;font-weight:500;font-stretch:normal;font-size:17.37948418px;font-family:Futura;-inkscape-font-specification:Futura-Medium;writing-mode:lr-tb;fill:#231f20;fill-opacity:1;fill-rule:nonzero;stroke:none"
       id="text136"><tspan
         x="0"
         y="0"
         id="tspan134">*</tspan></text>
<text
       transform="matrix(-0.69005276,0.72375906,0.72375906,0.69005276,107.4351,518.8501)"
       style="font-variant:normal;font-weight:500;font-stretch:normal;font-size:17.3795414px;font-family:Futura;-inkscape-font-specification:Futura-Medium;writing-mode:lr-tb;fill:#231f20;fill-opacity:1;fill-rule:nonzero;stroke:none"
       id="text140"><tspan
         x="0"
         y="0"
         id="tspan138">*</tspan></text>
<text
       transform="matrix(-0.48894394,0.87231521,0.87231521,0.48894394,93.6436,535.2573)"
       style="font-variant:normal;font-weight:500;font-stretch:normal;font-size:17.37949753px;font-family:Futura;-inkscape-font-specification:Futura-Medium;writing-mode:lr-tb;fill:#231f20;fill-opacity:1;fill-rule:nonzero;stroke:none"
       id="text144"><tspan
         x="0"
         y="0"
         id="tspan142">*</tspan></text>
<text
       transform="matrix(-0.25520865,0.966886,0.966886,0.25520865,84.3691,554.5669)"
       style="font-variant:normal;font-weight:500;font-stretch:normal;font-size:17.37950516px;font-family:Futura;-inkscape-font-specification:Futura-Medium;writing-mode:lr-tb;fill:#231f20;fill-opacity:1;fill-rule:nonzero;stroke:none"
       id="text148"><tspan
         x="0"
         y="0"
         id="tspan146">*</tspan></text>
<text
       transform="matrix(0.36254067,0.93196795,0.93196795,-0.36254067,84.1191,607.7695)"
       style="font-variant:normal;font-weight:500;font-stretch:normal;font-size:17.3795681px;font-family:Futura;-inkscape-font-specification:Futura-Medium;writing-mode:lr-tb;fill:#231f20;fill-opacity:1;fill-rule:nonzero;stroke:none"
       id="text152"><tspan
         x="0"
         y="0"
         id="tspan150">S</tspan></text>
<text
       transform="matrix(0.58926082,0.80794287,0.80794287,-0.58926082,92.7246,626.5874)"
       style="font-variant:normal;font-weight:500;font-stretch:normal;font-size:17.37957001px;font-family:Futura;-inkscape-font-specification:Futura-Medium;writing-mode:lr-tb;fill:#231f20;fill-opacity:1;fill-rule:nonzero;stroke:none"
       id="text156"><tspan
         x="0"
         y="0"
         id="tspan154">A</tspan></text>
<text
       transform="matrix(0.7748177,0.63218473,0.63218473,-0.7748177,107.0386,643.9858)"
       style="font-variant:normal;font-weight:500;font-stretch:normal;font-size:17.37957191px;font-family:Futura;-inkscape-font-specification:Futura-Medium;writing-mode:lr-tb;fill:#231f20;fill-opacity:1;fill-rule:nonzero;stroke:none"
       id="text160"><tspan
         x="0"
         y="0"
         id="tspan158">V</tspan></text>
<text
       transform="matrix(0.90802371,0.41891879,0.41891879,-0.90802371,125.3237,657.0122)"
       style="font-variant:normal;font-weight:500;font-stretch:normal;font-size:17.37950134px;font-family:Futura;-inkscape-font-specification:Futura-Medium;writing-mode:lr-tb;fill:#231f20;fill-opacity:1;fill-rule:nonzero;stroke:none"
       id="text164"><tspan
         x="0"
         y="0"
         id="tspan162">E</tspan></text>
<text
       transform="matrix(0.99986863,-0.01620867,-0.01620867,-0.99986863,160.5249,666.9653)"
       style="font-variant:normal;font-weight:500;font-stretch:normal;font-size:17.37958336px;font-family:Futura;-inkscape-font-specification:Futura-Medium;writing-mode:lr-tb;fill:#231f20;fill-opacity:1;fill-rule:nonzero;stroke:none"
       id="text168"><tspan
         x="0"
         y="0"
         id="tspan166">C</tspan></text>
<text
       transform="matrix(0.96353102,-0.26759668,-0.26759668,-0.96353102,183.3105,665.1714)"
       style="font-variant:normal;font-weight:500;font-stretch:normal;font-size:17.37951279px;font-family:Futura;-inkscape-font-specification:Futura-Medium;writing-mode:lr-tb;fill:#231f20;fill-opacity:1;fill-rule:nonzero;stroke:none"
       id="text172"><tspan
         x="0"
         y="0"
         id="tspan170">R</tspan></text>
<text
       transform="matrix(0.86915168,-0.49454561,-0.49454561,-0.86915168,203.3257,658.1948)"
       style="font-variant:normal;font-weight:500;font-stretch:normal;font-size:17.37959099px;font-family:Futura;-inkscape-font-specification:Futura-Medium;writing-mode:lr-tb;fill:#231f20;fill-opacity:1;fill-rule:nonzero;stroke:none"
       id="text176"><tspan
         x="0"
         y="0"
         id="tspan174">E</tspan></text>
<text
       transform="matrix(0.71548312,-0.69863002,-0.69863002,-0.71548312,220.5459,647.019)"
       style="font-variant:normal;font-weight:500;font-stretch:normal;font-size:17.37958527px;font-family:Futura;-inkscape-font-specification:Futura-Medium;writing-mode:lr-tb;fill:#231f20;fill-opacity:1;fill-rule:nonzero;stroke:none"
       id="text180"><tspan
         x="0"
         y="0"
         id="tspan178">D</tspan></text>
<text
       transform="matrix(0.53813331,-0.84285974,-0.84285974,-0.53813331,236.0396,629.5771)"
       style="font-variant:normal;font-weight:500;font-stretch:normal;font-size:17.37952232px;font-family:Futura;-inkscape-font-specification:Futura-Medium;writing-mode:lr-tb;fill:#231f20;fill-opacity:1;fill-rule:nonzero;stroke:none"
       id="text184"><tspan
         x="0"
         y="0"
         id="tspan182">I</tspan></text>
<text
       transform="matrix(0.35319714,-0.93554892,-0.93554892,-0.35319714,243.8184,615.6226)"
       style="font-variant:normal;font-weight:500;font-stretch:normal;font-size:17.37952995px;font-family:Futura;-inkscape-font-specification:Futura-Medium;writing-mode:lr-tb;fill:#231f20;fill-opacity:1;fill-rule:nonzero;stroke:none"
       id="text188"><tspan
         x="0"
         y="0"
         id="tspan186">T</tspan></text>
<text
       transform="matrix(-0.25519647,-0.96688922,-0.96688922,0.25519647,249.3203,564.938)"
       style="font-variant:normal;font-weight:500;font-stretch:normal;font-size:17.37955093px;font-family:Futura;-inkscape-font-specification:Futura-Medium;writing-mode:lr-tb;fill:#231f20;fill-opacity:1;fill-rule:nonzero;stroke:none"
       id="text192"><tspan
         x="0"
         y="0"
         id="tspan190">*</tspan></text>
<text
       transform="matrix(-0.48894394,-0.87231521,-0.87231521,0.48894394,242.5527,544.6143)"
       style="font-variant:normal;font-weight:500;font-stretch:normal;font-size:17.37949753px;font-family:Futura;-inkscape-font-specification:Futura-Medium;writing-mode:lr-tb;fill:#231f20;fill-opacity:1;fill-rule:nonzero;stroke:none"
       id="text196"><tspan
         x="0"
         y="0"
         id="tspan194">*</tspan></text>
<text
       transform="matrix(-0.69005276,-0.72375906,-0.72375906,0.69005276,230.9185,526.6133)"
       style="font-variant:normal;font-weight:500;font-stretch:normal;font-size:17.3795414px;font-family:Futura;-inkscape-font-specification:Futura-Medium;writing-mode:lr-tb;fill:#231f20;fill-opacity:1;fill-rule:nonzero;stroke:none"
       id="text200"><tspan
         x="0"
         y="0"
         id="tspan198">*</tspan></text>
<text
       transform="matrix(-0.84768913,-0.5304933,-0.5304933,0.84768913,215.208,512.0688)"
       style="font-variant:normal;font-weight:500;font-stretch:normal;font-size:17.37948418px;font-family:Futura;-inkscape-font-specification:Futura-Medium;writing-mode:lr-tb;fill:#231f20;fill-opacity:1;fill-rule:nonzero;stroke:none"
       id="text204"><tspan
         x="0"
         y="0"
         id="tspan202">*</tspan></text>
<text
       transform="matrix(-0.95337059,-0.30180211,-0.30180211,0.95337059,196.3594,501.8657)"
       style="font-variant:normal;font-weight:500;font-stretch:normal;font-size:17.37960052px;font-family:Futura;-inkscape-font-specification:Futura-Medium;writing-mode:lr-tb;fill:#231f20;fill-opacity:1;fill-rule:nonzero;stroke:none"
       id="text208"><tspan
         x="0"
         y="0"
         id="tspan206">*</tspan></text>
<g
       id="g210"><g
         transform="translate(165.4761,495.7339)"
         id="g218"><path
           inkscape:connector-curvature="0"
           id="path220"
           style="fill:#231f20;fill-opacity:1;fill-rule:nonzero;stroke:none"
           d="m 0,0 2.573,-7.915 h 8.321 l -6.732,-4.892 2.57,-7.915 -6.732,4.891 -6.734,-4.891 2.571,7.915 -6.732,4.892 h 8.322 z" /></g><g
         transform="translate(479.29,330.2217)"
         id="g222"><path
           inkscape:connector-curvature="0"
           id="path224"
           style="fill:#419939;fill-opacity:1;fill-rule:nonzero;stroke:none"
           d="m 0,0 -17.367,-17.364 c 20.302,-0.939 39.251,-9.286 53.719,-23.752 15.374,-15.375 23.84,-35.817 23.84,-57.56 0,-11.022 -2.181,-21.71 -6.33,-31.575 l 6.379,-23.807 27.79,7.447 c 0.22,0.5 0.444,0.997 0.658,1.501 6.222,14.717 9.379,30.339 9.379,46.434 0,16.095 -3.157,31.717 -9.379,46.435 -6.01,14.206 -14.606,26.96 -25.556,37.908 C 52.185,-3.385 39.43,5.213 25.224,11.222 c -14.53,6.146 -29.944,9.294 -45.82,9.372 z" /></g><g
         transform="translate(531.7773,162.7344)"
         id="g226"><path
           inkscape:connector-curvature="0"
           id="path228"
           style="fill:#206634;fill-opacity:1;fill-rule:nonzero;stroke:none"
           d="M 0,0 -6.225,23.237 C -9.112,18.982 -12.419,14.968 -16.136,11.251 -31.51,-4.123 -51.955,-12.59 -73.695,-12.59 c -21.746,0 -42.188,8.467 -57.561,23.841 -3.022,3.02 -5.77,6.24 -8.247,9.624 l -24.39,6.536 -7.318,-27.314 c 3.914,-5.545 8.31,-10.766 13.17,-15.627 10.949,-10.949 23.705,-19.547 37.909,-25.557 14.718,-6.225 30.34,-9.381 46.437,-9.381 16.091,0 31.716,3.156 46.431,9.381 14.206,6.01 26.961,14.608 37.91,25.557 7.03,7.03 13.089,14.81 18.117,23.238 z" /></g><g
         transform="translate(352.6631,175.7021)"
         id="g230"><path
           inkscape:connector-curvature="0"
           id="path232"
           style="fill:#82cc2a;fill-opacity:1;fill-rule:nonzero;stroke:none"
           d="M 0,0 7.467,27.872 31.617,21.4 c -4.976,10.646 -7.601,22.342 -7.601,34.444 0,21.743 8.466,42.184 23.842,57.559 12.38,12.38 28.047,20.278 45.031,22.886 L 111.12,154.52 91.344,174.297 C 80.209,172.991 69.368,170.135 58.982,165.741 44.778,159.732 32.022,151.135 21.073,140.187 10.126,129.238 1.529,116.484 -4.48,102.278 c -6.224,-14.717 -9.382,-30.34 -9.382,-46.434 0,-16.095 3.158,-31.717 9.382,-46.435 C -3.12,6.195 -1.624,3.061 0,0" /></g><g
         id="g234"><g
           id="g236" /><g
           id="g248"><g
             style="opacity:0.11000103"
             id="g246"
             clip-path="url(#clipPath240)"><g
               id="g244"
               transform="translate(502.1104,183.0898)"><path
                 inkscape:connector-curvature="0"
                 id="path242"
                 style="fill:#206634;fill-opacity:1;fill-rule:nonzero;stroke:none"
                 d="M 0,0 -0.422,-0.719 -41.618,7.377 V 46.699 L -7.196,66.38 20.513,34.994 19.537,33.332 c 0.502,0.016 1.002,0.002 1.498,-0.041 0.152,0.417 0.303,0.835 0.455,1.255 0.01,0.029 0.021,0.06 0.029,0.092 -0.041,0.974 0.039,1.954 0.25,2.942 0.335,0.927 0.67,1.855 1.006,2.781 0.046,0.093 0.106,0.179 0.156,0.27 -0.81,0.806 -1.431,1.658 -1.904,2.573 v -1.975 l -25.757,29.179 -12.733,37.314 1.569,-0.935 c -0.614,1.281 -1,2.713 -1.081,4.273 -0.005,0.115 0.002,0.229 0,0.344 -1.506,0.255 -3.025,0.444 -4.543,0.632 -0.879,0.11 -1.757,0.407 -2.593,0.833 -0.094,-0.79 -0.267,-1.569 -0.523,-2.325 h 1.44 L -9.459,70.286 -44.03,50.52 l -34.573,19.766 13.738,40.258 h 1.178 c -0.208,0.461 -0.379,0.936 -0.525,1.421 -0.874,-0.506 -1.816,-0.966 -2.897,-1.398 -1.312,-0.525 -2.606,-0.814 -3.907,-0.955 -0.233,-0.956 -0.586,-1.884 -1.043,-2.759 l 1.459,0.869 -12.73,-37.314 -25.76,-29.179 v 6.282 c -0.366,-0.311 -0.735,-0.591 -1.1,-0.831 -0.011,-0.007 -0.021,-0.012 -0.033,-0.019 0.102,-1.916 0.114,-3.826 -0.023,-5.751 -0.05,-0.677 -0.143,-1.341 -0.265,-1.994 0.674,-1.327 1.1,-2.821 1.186,-4.461 0.002,-0.027 -0.002,-0.055 0,-0.082 0.288,0.144 0.578,0.283 0.878,0.403 l -0.126,0.218 27.708,31.386 34.422,-19.681 V 7.377 l -41.196,-8.096 -0.748,1.276 c -0.252,-0.175 -0.511,-0.338 -0.778,-0.491 1.497,-1.16 2.956,-2.367 4.46,-3.566 0.201,-0.161 0.632,-0.441 0.955,-0.651 0.18,-0.098 0.354,-0.206 0.536,-0.3 0.358,-0.018 0.71,-0.048 1.06,-0.095 l -0.406,0.225 38.53,7.571 38.53,-7.571 -1.128,-0.621 c 1.107,-0.035 2.217,-0.06 3.316,-0.004 0.395,0.408 0.744,0.766 0.836,0.872 0.761,0.866 1.512,1.74 2.258,2.619 0.166,0.195 0.334,0.386 0.497,0.579 C 0.175,-0.589 0.079,-0.297 0,0" /></g></g></g></g><g
         transform="translate(12.823548,-1.8486381)"
         id="g20"><g
           id="g22" /><g
           id="g34"><g
             clip-path="url(#clipPath26-9)"
             id="g32"
             style="opacity:0.11000103"><g
               transform="translate(282.9053,231.7305)"
               id="g30"><path
                 d="m 0,0 c 0,66.021 -53.52,119.542 -119.542,119.542 -66.022,0 -119.542,-53.521 -119.542,-119.542 0,-66.021 53.52,-119.543 119.542,-119.543 C -53.52,-119.543 0,-66.021 0,0"
                 style="fill:#206634;fill-opacity:1;fill-rule:nonzero;stroke:none"
                 id="path28"
                 inkscape:connector-curvature="0" /></g></g></g></g><g
         id="g36"
         transform="translate(143.76005,172.15816)"><path
           d="m 0,0 v 7.061 c -2.861,1.494 -5.595,3.184 -8.168,5.08 V 0 Z"
           style="fill:#ffffff;fill-opacity:1;fill-rule:nonzero;stroke:none"
           id="path38"
           inkscape:connector-curvature="0" /></g><g
         id="g40"
         transform="translate(218.82406,172.15816)"><path
           d="M 0,0 V 13.074 C -2.567,11.082 -5.295,9.29 -8.168,7.711 V 0 Z"
           style="fill:#ffffff;fill-opacity:1;fill-rule:nonzero;stroke:none"
           id="path42"
           inkscape:connector-curvature="0" /></g><g
         id="g44"
         transform="translate(205.15655,172.15816)"><path
           d="M 0,0 V 5.02 C -2.312,4.02 -4.694,3.143 -7.141,2.397 V 0 Z"
           style="fill:#ffffff;fill-opacity:1;fill-rule:nonzero;stroke:none"
           id="path46"
           inkscape:connector-curvature="0" /></g><g
         id="g48"
         transform="translate(156.39976,172.15816)"><path
           d="M 0,0 V 2.049 C -2.441,2.744 -4.827,3.561 -7.14,4.507 V 0 Z"
           style="fill:#ffffff;fill-opacity:1;fill-rule:nonzero;stroke:none"
           id="path50"
           inkscape:connector-curvature="0" /></g><g
         id="g52"
         transform="translate(143.76005,172.15816)"><path
           d="M 0,0 H -8.168 V 12.141 C -5.595,10.245 -2.861,8.555 0,7.061 Z"
           style="fill:#ffffff;fill-opacity:1;fill-rule:nonzero;stroke:none"
           id="path54"
           inkscape:connector-curvature="0" /></g><g
         id="g56"
         transform="translate(156.39976,172.15816)"><path
           d="M 0,0 H -7.14 V 4.507 C -4.827,3.561 -2.441,2.744 0,2.049 Z"
           style="fill:#ffffff;fill-opacity:1;fill-rule:nonzero;stroke:none"
           id="path58"
           inkscape:connector-curvature="0" /></g><g
         id="g60"
         transform="translate(205.15655,172.15816)"><path
           d="M 0,0 H -7.141 V 2.397 C -4.694,3.143 -2.312,4.02 0,5.02 Z"
           style="fill:#ffffff;fill-opacity:1;fill-rule:nonzero;stroke:none"
           id="path62"
           inkscape:connector-curvature="0" /></g><g
         id="g64"
         transform="translate(218.82406,172.15816)"><path
           d="M 0,0 H -8.168 V 7.711 C -5.295,9.29 -2.567,11.082 0,13.074 Z"
           style="fill:#ffffff;fill-opacity:1;fill-rule:nonzero;stroke:none"
           id="path66"
           inkscape:connector-curvature="0" /></g><g
         id="g68"
         transform="translate(251.34356,224.90137)"><path
           d="m 0,0 h -10.423 -5.543 c -0.113,-0.944 -0.25,-1.881 -0.41,-2.811 -2.005,-11.631 -7.646,-22.036 -16.404,-29.934 -10.893,-9.824 -25.794,-15.235 -41.958,-15.235 -16.164,0 -31.065,5.411 -41.959,15.235 -11.114,10.023 -17.234,24.072 -17.234,39.558 0,15.487 6.12,29.535 17.234,39.558 10.894,9.825 25.795,15.236 41.959,15.236 16.164,0 31.065,-5.411 41.958,-15.236 8.758,-7.898 14.399,-18.303 16.404,-29.934 0.16,-0.929 0.297,-1.866 0.41,-2.81 H -10.423 0 Z"
           style="fill:#ffffff;fill-opacity:1;fill-rule:nonzero;stroke:none"
           id="path70"
           inkscape:connector-curvature="0" /></g><g
         id="g310"
         transform="translate(301.47195,229.88186)"><path
           d="m 0,0 c 0,69.193 -56.091,125.285 -125.285,125.285 -69.194,0 -125.286,-56.092 -125.286,-125.285 0,-69.192 56.092,-125.286 125.286,-125.286 C -56.091,-125.286 0,-69.192 0,0 Z"
           style="fill:none;stroke:#231f20;stroke-width:3;stroke-linecap:butt;stroke-linejoin:miter;stroke-miterlimit:4;stroke-dasharray:none;stroke-opacity:1"
           id="path312"
           inkscape:connector-curvature="0" /></g><g
         id="g318"
         transform="translate(146.09115,166.65916)"><path
           d="M 0,0 V 14.247"
           style="fill:#ffffff;fill-opacity:1;fill-rule:nonzero;stroke:none"
           id="path320"
           inkscape:connector-curvature="0" /></g><g
         id="g322"
         transform="translate(158.63946,272.12496)"><path
           d="m 0,0 -2.147,5.062 c 6.238,2.647 12.865,3.989 19.694,3.989 6.671,0 13.152,-1.281 19.264,-3.808 L 34.71,0.16 C 29.268,2.41 23.493,3.551 17.547,3.551 11.459,3.551 5.556,2.356 0,0"
           style="fill:#82cc2a;fill-opacity:1;fill-rule:nonzero;stroke:none"
           id="path324"
           inkscape:connector-curvature="0" /></g><g
         id="g326"
         transform="translate(208.28155,248.97366)"><path
           d="m 0,0 h -5.5 v 22.471 l 2.64,0.106 C -2.404,22.589 8.359,22.9 17.194,12.201 L 12.953,8.7 C 8.276,14.364 3.066,16.204 0,16.8 Z"
           style="fill:#82cc2a;fill-opacity:1;fill-rule:nonzero;stroke:none"
           id="path328"
           inkscape:connector-curvature="0" /></g><g
         id="g330"
         transform="translate(227.11066,244.90816)"><path
           d="m 0,0 c 0,-2.147 -1.741,-3.889 -3.889,-3.889 -2.147,0 -3.888,1.742 -3.888,3.889 0,2.148 1.741,3.889 3.888,3.889 C -1.741,3.889 0,2.148 0,0"
           style="fill:#82cc2a;fill-opacity:1;fill-rule:nonzero;stroke:none"
           id="path332"
           inkscape:connector-curvature="0" /></g><g
         id="g334"
         transform="translate(250.92515,224.90137)"><path
           d="m 0,0 h -10.423 -5.543 c -0.113,-0.944 -0.25,-1.881 -0.41,-2.811 -2.005,-11.631 -7.646,-22.036 -16.404,-29.934 -10.893,-9.824 -25.794,-15.235 -41.958,-15.235 -16.164,0 -31.065,5.411 -41.959,15.235 -11.114,10.023 -17.234,24.072 -17.234,39.558 0,15.487 6.12,29.535 17.234,39.558 10.894,9.825 25.795,15.236 41.959,15.236 16.164,0 31.065,-5.411 41.958,-15.236 8.758,-7.898 14.399,-18.303 16.404,-29.934 0.16,-0.929 0.297,-1.866 0.41,-2.81 H -10.423 0 Z m -32.52,-52.743 h -8.168 v 7.711 c 2.873,1.579 5.601,3.371 8.168,5.363 z m -13.668,0 h -7.14 v 2.397 c 2.446,0.745 4.828,1.622 7.14,2.622 z m -48.756,0 h -7.14 v 4.507 c 2.313,-0.947 4.699,-1.763 7.14,-2.458 z m -12.64,0 h -8.168 v 12.14 c 2.573,-1.895 5.307,-3.585 8.168,-5.08 z m -43.618,57.284 c 0.31,3.589 2.646,6.892 3.902,7.72 0.595,-1.444 -0.049,-3.649 -1.649,-5.629 -0.676,-0.837 -1.446,-1.543 -2.253,-2.091 m 139.933,14.585 c -2.459,12.137 -8.577,22.987 -17.828,31.33 -11.905,10.737 -28.114,16.65 -45.641,16.65 -17.527,0 -33.737,-5.913 -45.642,-16.65 -12.285,-11.08 -19.051,-26.579 -19.051,-43.643 0,-0.463 0.024,-0.92 0.035,-1.381 -0.872,-1.655 -4.347,-7.496 -9.147,-5.711 1.416,0.885 2.738,2.05 3.873,3.456 2.961,3.666 3.864,7.879 2.416,11.271 -1.06,2.485 -3.092,3.772 -5.431,3.442 -4.431,-0.62 -8.266,-6.985 -8.936,-12.309 -0.081,-0.643 -0.118,-1.267 -0.113,-1.869 -1.986,1.045 -3.179,3.697 -3.854,5.908 l -5.26,-1.607 c 2.231,-7.302 6.208,-9.515 9.152,-10.085 0.597,-0.116 1.21,-0.182 1.824,-0.167 0.985,-1.316 2.347,-2.355 4.052,-3.054 1.452,-0.597 2.838,-0.856 4.147,-0.856 3.135,0 5.834,1.495 7.963,3.462 1.979,-12.873 8.009,-24.433 17.459,-33.314 v -22.241 h 13.667 5.5 12.64 v 6.217 c 4.748,-0.951 9.669,-1.454 14.706,-1.454 5.462,0 10.795,0.575 15.911,1.69 v -6.453 h 12.639 5.5 13.667 v 23.388 c 8.092,8.049 13.482,18.153 15.752,29.355 H 5.5 v 24.625 z"
           style="fill:#82cc2a;fill-opacity:1;fill-rule:nonzero;stroke:none"
           id="path336"
           inkscape:connector-curvature="0" /></g><g
         id="g338"
         transform="translate(138.33085,230.79787)"><path
           d="m 0,0 v 1.485 l 3.168,8.678 H 0.165 v 1.583 H 4.999 V 10.41 L 1.765,1.583 H 4.999 V 0 Z"
           style="fill:#419939;fill-opacity:1;fill-rule:nonzero;stroke:none"
           id="path340"
           inkscape:connector-curvature="0" /></g><g
         id="g342"
         transform="translate(146.01885,230.79787)"><path
           d="M 0,0 V 11.746 H 5.016 V 10.163 H 1.684 V 6.715 H 4.587 V 5.131 H 1.684 V 1.683 H 5.016 V 0 Z"
           style="fill:#419939;fill-opacity:1;fill-rule:nonzero;stroke:none"
           id="path344"
           inkscape:connector-curvature="0" /></g><g
         id="g346"
         transform="translate(155.45635,240.96097)"><path
           d="m 0,0 v -3.663 h 0.957 c 0.297,0 0.533,0.041 0.71,0.124 0.175,0.082 0.313,0.2 0.412,0.354 0.088,0.154 0.148,0.344 0.181,0.57 0.033,0.225 0.05,0.486 0.05,0.784 0,0.297 -0.017,0.558 -0.05,0.783 -0.033,0.226 -0.098,0.42 -0.197,0.586 C 1.853,-0.154 1.458,0 0.875,0 Z M -1.683,-10.163 V 1.583 h 2.706 c 1.98,0 2.97,-1.148 2.97,-3.447 0,-0.694 -0.108,-1.282 -0.322,-1.766 C 3.457,-4.114 3.08,-4.504 2.541,-4.802 l 1.815,-5.361 H 2.574 L 1.006,-5.147 H 0 v -5.016 z"
           style="fill:#419939;fill-opacity:1;fill-rule:nonzero;stroke:none"
           id="path348"
           inkscape:connector-curvature="0" /></g><g
         id="g350"
         transform="translate(164.03545,233.56936)"><path
           d="m 0,0 c 0,-0.406 0.113,-0.706 0.338,-0.898 0.226,-0.194 0.493,-0.29 0.801,-0.29 0.307,0 0.574,0.096 0.799,0.29 C 2.164,-0.706 2.277,-0.406 2.277,0 V 6.204 C 2.277,6.61 2.164,6.91 1.938,7.103 1.713,7.295 1.446,7.392 1.139,7.392 0.831,7.392 0.564,7.295 0.338,7.103 0.113,6.91 0,6.61 0,6.204 Z m -1.683,6.204 c 0,0.473 0.083,0.891 0.247,1.254 0.165,0.362 0.385,0.665 0.661,0.906 0.264,0.232 0.563,0.407 0.899,0.529 0.335,0.121 0.673,0.181 1.015,0.181 0.34,0 0.678,-0.06 1.014,-0.181 C 2.489,8.771 2.794,8.596 3.069,8.364 3.333,8.123 3.547,7.82 3.712,7.458 3.877,7.095 3.96,6.677 3.96,6.204 V 0 C 3.96,-0.495 3.877,-0.919 3.712,-1.271 3.547,-1.622 3.333,-1.914 3.069,-2.145 2.794,-2.387 2.489,-2.568 2.153,-2.689 1.817,-2.81 1.479,-2.871 1.139,-2.871 c -0.342,0 -0.68,0.061 -1.015,0.182 -0.336,0.121 -0.635,0.302 -0.899,0.544 -0.276,0.231 -0.496,0.523 -0.661,0.874 C -1.6,-0.919 -1.683,-0.495 -1.683,0 Z"
           style="fill:#419939;fill-opacity:1;fill-rule:nonzero;stroke:none"
           id="path352"
           inkscape:connector-curvature="0" /></g><g
         id="g354"
         transform="translate(182.92655,242.54396)"><path
           d="m 0,0 -1.749,-11.746 h -1.584 l -1.287,7.622 h -0.033 l -1.27,-7.622 H -7.507 L -9.256,0 h 1.782 l 0.841,-7.457 H -6.6 L -5.28,0 h 1.287 l 1.369,-7.639 H -2.59 L -1.782,0 Z"
           style="fill:#419939;fill-opacity:1;fill-rule:nonzero;stroke:none"
           id="path356"
           inkscape:connector-curvature="0" /></g><g
         id="g358"
         transform="translate(188.53546,234.90526)"><path
           d="M 0,0 -0.825,4.258 H -0.857 L -1.683,0 Z m -4.157,-4.107 2.623,11.746 h 1.402 L 2.491,-4.107 H 0.809 l -0.496,2.524 h -2.292 l -0.496,-2.524 z"
           style="fill:#419939;fill-opacity:1;fill-rule:nonzero;stroke:none"
           id="path360"
           inkscape:connector-curvature="0" /></g><g
         id="g362"
         transform="translate(198.94655,239.16307)"><path
           d="m 0,0 h -1.684 v 0.379 c 0,0.385 -0.09,0.718 -0.272,0.998 -0.181,0.28 -0.486,0.421 -0.915,0.421 -0.231,0 -0.418,-0.044 -0.561,-0.133 C -3.575,1.578 -3.691,1.468 -3.778,1.336 -3.867,1.192 -3.927,1.03 -3.96,0.849 -3.993,0.667 -4.009,0.478 -4.009,0.279 c 0,-0.23 0.008,-0.423 0.024,-0.577 0.017,-0.153 0.058,-0.292 0.124,-0.412 0.066,-0.121 0.162,-0.226 0.289,-0.313 0.126,-0.089 0.299,-0.177 0.519,-0.265 l 1.287,-0.511 c 0.374,-0.143 0.677,-0.311 0.908,-0.503 0.231,-0.193 0.412,-0.415 0.544,-0.669 0.121,-0.263 0.204,-0.563 0.248,-0.899 C -0.022,-4.206 0,-4.587 0,-5.017 c 0,-0.495 -0.05,-0.954 -0.149,-1.378 -0.099,-0.422 -0.259,-0.783 -0.478,-1.08 -0.231,-0.307 -0.534,-0.55 -0.908,-0.725 -0.374,-0.176 -0.831,-0.265 -1.369,-0.265 -0.407,0 -0.787,0.072 -1.138,0.215 -0.353,0.143 -0.655,0.341 -0.908,0.594 -0.253,0.253 -0.453,0.547 -0.602,0.883 -0.149,0.335 -0.223,0.701 -0.223,1.096 v 0.628 h 1.683 v -0.528 c 0,-0.308 0.091,-0.586 0.272,-0.833 0.182,-0.248 0.487,-0.372 0.916,-0.372 0.285,0 0.508,0.042 0.668,0.124 0.159,0.083 0.283,0.201 0.371,0.355 0.088,0.154 0.14,0.338 0.157,0.552 0.017,0.215 0.024,0.454 0.024,0.718 0,0.308 -0.01,0.561 -0.032,0.76 -0.022,0.197 -0.066,0.356 -0.132,0.477 -0.077,0.121 -0.179,0.221 -0.305,0.298 -0.127,0.076 -0.295,0.159 -0.504,0.247 l -1.204,0.495 c -0.726,0.297 -1.213,0.691 -1.46,1.18 -0.248,0.489 -0.371,1.102 -0.371,1.84 0,0.439 0.06,0.857 0.181,1.254 0.121,0.395 0.303,0.736 0.545,1.022 0.231,0.286 0.525,0.515 0.883,0.685 0.356,0.171 0.783,0.255 1.278,0.255 0.417,0 0.8,-0.077 1.147,-0.23 C -1.312,3.096 -1.013,2.892 -0.759,2.64 -0.253,2.111 0,1.506 0,0.824 Z"
           style="fill:#419939;fill-opacity:1;fill-rule:nonzero;stroke:none"
           id="path364"
           inkscape:connector-curvature="0" /></g><g
         id="g366"
         transform="translate(202.95485,230.79787)"><path
           d="m 0,0 v 10.163 h -1.947 v 1.583 H 3.63 V 10.163 H 1.683 V 0 Z"
           style="fill:#419939;fill-opacity:1;fill-rule:nonzero;stroke:none"
           id="path368"
           inkscape:connector-curvature="0" /></g><g
         id="g370"
         transform="translate(208.97686,230.79787)"><path
           d="M 0,0 V 11.746 H 5.016 V 10.163 H 1.684 V 6.715 H 4.587 V 5.131 H 1.684 V 1.683 H 5.016 V 0 Z"
           style="fill:#419939;fill-opacity:1;fill-rule:nonzero;stroke:none"
           id="path372"
           inkscape:connector-curvature="0" /></g><g
         id="g374"
         transform="translate(147.73465,220.72657)"><path
           d="M 0,0 -0.825,4.257 H -0.858 L -1.683,0 Z m -4.158,-4.108 2.623,11.747 h 1.403 L 2.491,-4.108 H 0.809 L 0.313,-1.584 H -1.98 l -0.495,-2.524 z"
           style="fill:#419939;fill-opacity:1;fill-rule:nonzero;stroke:none"
           id="path376"
           inkscape:connector-curvature="0" /></g><g
         id="g378"
         transform="translate(154.38366,226.78126)"><path
           d="m 0,0 v -8.579 h 0.775 c 0.474,0 0.809,0.118 1.007,0.355 0.197,0.237 0.297,0.607 0.297,1.114 v 5.659 c 0,0.462 -0.094,0.818 -0.281,1.072 C 1.611,-0.127 1.271,0 0.775,0 Z M -1.683,-10.163 V 1.584 h 2.492 c 0.967,0 1.702,-0.265 2.202,-0.792 0.5,-0.527 0.751,-1.276 0.751,-2.243 v -5.495 c 0,-1.1 -0.267,-1.91 -0.801,-2.434 -0.533,-0.522 -1.3,-0.783 -2.301,-0.783 z"
           style="fill:#419939;fill-opacity:1;fill-rule:nonzero;stroke:none"
           id="path380"
           inkscape:connector-curvature="0" /></g><g
         id="g382"
         transform="translate(166.79035,228.36526)"><path
           d="M 0,0 -2.409,-11.747 H -3.893 L -6.286,0 h 1.783 l 1.336,-8.199 h 0.032 L -1.782,0 Z"
           style="fill:#419939;fill-opacity:1;fill-rule:nonzero;stroke:none"
           id="path384"
           inkscape:connector-curvature="0" /></g><g
         id="g386"
         transform="translate(171.03055,219.38966)"><path
           d="m 0,0 c 0,-0.406 0.113,-0.706 0.338,-0.898 0.226,-0.193 0.493,-0.289 0.801,-0.289 0.307,0 0.574,0.096 0.8,0.289 C 2.164,-0.706 2.277,-0.406 2.277,0 V 6.204 C 2.277,6.61 2.164,6.91 1.939,7.103 1.713,7.295 1.446,7.392 1.139,7.392 0.831,7.392 0.564,7.295 0.338,7.103 0.113,6.91 0,6.61 0,6.204 Z m -1.683,6.204 c 0,0.473 0.083,0.891 0.248,1.254 0.165,0.362 0.385,0.665 0.66,0.907 0.264,0.231 0.563,0.407 0.899,0.528 0.335,0.121 0.673,0.181 1.015,0.181 0.34,0 0.678,-0.06 1.014,-0.181 C 2.489,8.772 2.794,8.596 3.069,8.365 3.333,8.123 3.547,7.82 3.712,7.458 3.877,7.095 3.96,6.677 3.96,6.204 V 0 C 3.96,-0.495 3.877,-0.918 3.712,-1.271 3.547,-1.622 3.333,-1.914 3.069,-2.145 2.794,-2.387 2.489,-2.568 2.153,-2.688 1.817,-2.81 1.479,-2.87 1.139,-2.87 c -0.342,0 -0.68,0.06 -1.015,0.182 -0.336,0.12 -0.635,0.301 -0.899,0.543 -0.275,0.231 -0.495,0.523 -0.66,0.874 C -1.6,-0.918 -1.683,-0.495 -1.683,0 Z"
           style="fill:#419939;fill-opacity:1;fill-rule:nonzero;stroke:none"
           id="path388"
           inkscape:connector-curvature="0" /></g><g
         id="g390"
         transform="translate(183.47056,219.96676)"><path
           d="m 0,0 v -0.726 c 0,-0.362 -0.069,-0.706 -0.206,-1.031 -0.138,-0.324 -0.328,-0.613 -0.569,-0.865 -0.243,-0.254 -0.526,-0.454 -0.85,-0.603 -0.325,-0.148 -0.674,-0.222 -1.048,-0.222 -0.319,0 -0.643,0.043 -0.973,0.132 -0.33,0.087 -0.627,0.242 -0.891,0.461 -0.264,0.22 -0.482,0.503 -0.651,0.85 -0.171,0.347 -0.257,0.789 -0.257,1.328 v 6.468 c 0,0.385 0.067,0.742 0.198,1.072 0.133,0.33 0.319,0.615 0.561,0.859 0.242,0.241 0.531,0.43 0.867,0.569 0.335,0.137 0.706,0.205 1.113,0.205 0.792,0 1.435,-0.258 1.931,-0.774 0.241,-0.254 0.431,-0.554 0.569,-0.9 C -0.069,6.477 0,6.1 0,5.692 v -0.66 h -1.683 v 0.562 c 0,0.33 -0.093,0.616 -0.28,0.857 -0.188,0.243 -0.44,0.363 -0.759,0.363 -0.418,0 -0.696,-0.129 -0.834,-0.387 C -3.693,6.168 -3.762,5.841 -3.762,5.445 v -6.006 c 0,-0.34 0.074,-0.626 0.223,-0.858 0.149,-0.23 0.415,-0.346 0.8,-0.346 0.11,0 0.229,0.02 0.355,0.058 0.126,0.039 0.244,0.102 0.355,0.19 0.098,0.087 0.181,0.208 0.247,0.363 0.066,0.153 0.099,0.346 0.099,0.577 V 0 Z"
           style="fill:#419939;fill-opacity:1;fill-rule:nonzero;stroke:none"
           id="path392"
           inkscape:connector-curvature="0" /></g><g
         id="g394"
         transform="translate(189.88846,220.72657)"><path
           d="M 0,0 -0.825,4.257 H -0.858 L -1.683,0 Z m -4.158,-4.108 2.624,11.747 h 1.402 L 2.491,-4.108 H 0.809 l -0.496,2.524 h -2.292 l -0.496,-2.524 z"
           style="fill:#419939;fill-opacity:1;fill-rule:nonzero;stroke:none"
           id="path396"
           inkscape:connector-curvature="0" /></g><g
         id="g398"
         transform="translate(200.20006,219.96676)"><path
           d="m 0,0 v -0.726 c 0,-0.362 -0.068,-0.706 -0.206,-1.031 -0.138,-0.324 -0.328,-0.613 -0.569,-0.865 -0.242,-0.254 -0.526,-0.454 -0.85,-0.603 -0.325,-0.148 -0.674,-0.222 -1.048,-0.222 -0.319,0 -0.643,0.043 -0.973,0.132 -0.33,0.087 -0.627,0.242 -0.891,0.461 -0.264,0.22 -0.482,0.503 -0.651,0.85 -0.171,0.347 -0.256,0.789 -0.256,1.328 v 6.468 c 0,0.385 0.066,0.742 0.198,1.072 0.132,0.33 0.318,0.615 0.56,0.859 0.242,0.241 0.531,0.43 0.867,0.569 0.335,0.137 0.706,0.205 1.113,0.205 0.792,0 1.436,-0.258 1.931,-0.774 0.241,-0.254 0.431,-0.554 0.569,-0.9 C -0.068,6.477 0,6.1 0,5.692 v -0.66 h -1.683 v 0.562 c 0,0.33 -0.093,0.616 -0.28,0.857 -0.187,0.243 -0.44,0.363 -0.759,0.363 -0.418,0 -0.696,-0.129 -0.833,-0.387 C -3.693,6.168 -3.762,5.841 -3.762,5.445 v -6.006 c 0,-0.34 0.074,-0.626 0.223,-0.858 0.149,-0.23 0.415,-0.346 0.8,-0.346 0.11,0 0.229,0.02 0.355,0.058 0.127,0.039 0.245,0.102 0.355,0.19 0.099,0.087 0.181,0.208 0.247,0.363 0.067,0.153 0.099,0.346 0.099,0.577 V 0 Z"
           style="fill:#419939;fill-opacity:1;fill-rule:nonzero;stroke:none"
           id="path400"
           inkscape:connector-curvature="0" /></g><g
         id="g402"
         transform="translate(204.78695,216.61816)"><path
           d="m 0,0 v 4.967 l -2.31,6.78 h 1.782 L 0.825,7.078 H 0.857 L 2.21,11.747 H 3.993 L 1.683,4.967 V 0 Z"
           style="fill:#419939;fill-opacity:1;fill-rule:nonzero;stroke:none"
           id="path404"
           inkscape:connector-curvature="0" /></g><g
         id="g406"
         transform="translate(149.23415,139.51956)"><path
           d="M 0,0 -0.579,-2.221 -2.203,-1.699 -1.374,0.44 -3.672,0.305 -3.678,2.009 -1.385,1.879 -2.222,4.02 -0.607,4.553 -0.01,2.329 1.761,3.793 2.772,2.417 0.84,1.174 2.778,-0.062 1.782,-1.445 Z"
           style="fill:#206634;fill-opacity:1;fill-rule:nonzero;stroke:none"
           id="path408"
           inkscape:connector-curvature="0" /></g><g
         id="g410"
         transform="translate(127.06375,149.66306)"><path
           d="m 0,0 -1.114,-2.006 -1.444,0.91 1.338,1.867 -2.26,0.44 0.419,1.652 2.189,-0.698 -0.277,2.282 1.697,0.114 0.023,-2.302 2.08,0.975 0.636,-1.584 -2.18,-0.721 1.568,-1.683 -1.31,-1.09 z"
           style="fill:#206634;fill-opacity:1;fill-rule:nonzero;stroke:none"
           id="path412"
           inkscape:connector-curvature="0" /></g><g
         id="g414"
         transform="translate(108.13115,164.97757)"><path
           d="m 0,0 -1.576,-1.667 -1.173,1.237 1.757,1.478 -2.08,0.987 0.814,1.496 L -0.31,2.314 -0.014,4.593 1.658,4.284 1.112,2.047 3.368,2.479 3.593,0.786 1.302,0.626 2.406,-1.391 0.867,-2.124 Z"
           style="fill:#206634;fill-opacity:1;fill-rule:nonzero;stroke:none"
           id="path416"
           inkscape:connector-curvature="0" /></g><g
         id="g418"
         transform="translate(93.560847,184.51177)"><path
           d="m 0,0 -1.939,-1.227 -0.83,1.491 2.067,0.997 -1.771,1.47 1.161,1.248 L 0.273,2.318 1.125,4.453 2.668,3.739 1.584,1.708 3.878,1.566 3.676,-0.129 1.417,0.283 1.986,-1.944 0.314,-2.272 Z"
           style="fill:#206634;fill-opacity:1;fill-rule:nonzero;stroke:none"
           id="path420"
           inkscape:connector-curvature="0" /></g><g
         id="g422"
         transform="translate(84.302548,207.07126)"><path
           d="M 0,0 -2.185,-0.703 -2.616,0.948 -0.365,1.396 -1.712,3.263 -0.277,4.182 0.844,2.176 2.201,4.03 3.517,2.954 1.961,1.258 4.146,0.548 3.527,-1.044 1.441,-0.08 1.437,-2.378 -0.264,-2.279 Z"
           style="fill:#206634;fill-opacity:1;fill-rule:nonzero;stroke:none"
           id="path424"
           inkscape:connector-curvature="0" /></g><g
         id="g426"
         transform="translate(89.864547,271.17576)"><path
           d="m 0,0 0.301,-1.84 c -0.593,-0.09 -1.013,-0.231 -1.26,-0.428 -0.271,-0.197 -0.489,-0.503 -0.651,-0.92 -0.2,-0.511 -0.221,-0.993 -0.063,-1.443 0.153,-0.448 0.445,-0.757 0.878,-0.926 0.595,-0.232 1.247,0.023 1.957,0.766 l 0.973,1.023 c 0.788,0.834 1.56,1.368 2.316,1.6 0.757,0.233 1.553,0.186 2.391,-0.141 1.122,-0.438 1.904,-1.175 2.344,-2.21 0.443,-1.042 0.446,-2.122 0.01,-3.239 -0.414,-1.058 -1.07,-1.81 -1.967,-2.256 -0.892,-0.434 -1.94,-0.513 -3.145,-0.237 l 0.318,2.025 c 0.75,-0.196 1.303,-0.241 1.66,-0.137 0.675,0.174 1.154,0.624 1.438,1.35 0.225,0.575 0.219,1.126 -0.018,1.657 -0.236,0.529 -0.649,0.91 -1.239,1.139 C 6.005,-4.123 5.775,-4.071 5.552,-4.06 5.329,-4.049 5.107,-4.08 4.886,-4.155 4.666,-4.229 4.44,-4.35 4.208,-4.515 3.977,-4.679 3.735,-4.889 3.484,-5.143 l -0.95,-0.985 c -1.359,-1.394 -2.718,-1.827 -4.077,-1.296 -0.917,0.359 -1.547,1.008 -1.89,1.951 -0.347,0.944 -0.318,1.937 0.09,2.981 C -2.793,-1.086 -1.679,-0.255 0,0"
           style="fill:#206634;fill-opacity:1;fill-rule:nonzero;stroke:none"
           id="path428"
           inkscape:connector-curvature="0" /></g><g
         id="g430"
         transform="translate(106.52375,287.33596)"><path
           d="m 0,0 -4.744,1.061 2.395,-4.274 z M 1.976,-0.446 -1.335,-4.975 0.373,-8.031 -0.884,-9.751 -8.3,3.702 6.633,0.532 5.356,-1.215 Z"
           style="fill:#206634;fill-opacity:1;fill-rule:nonzero;stroke:none"
           id="path432"
           inkscape:connector-curvature="0" /></g><g
         id="g434"
         transform="translate(113.36455,306.46186)"><path
           d="M 0,0 8.544,-4.752 5.658,4.608 7.336,5.976 11.673,-8.66 -1.678,-1.367 Z"
           style="fill:#206634;fill-opacity:1;fill-rule:nonzero;stroke:none"
           id="path436"
           inkscape:connector-curvature="0" /></g><g
         id="g438"
         transform="translate(141.46225,321.78516)"><path
           d="m 0,0 -4.771,-2.198 1.318,-2.86 4.632,2.135 0.778,-1.688 -4.632,-2.135 1.833,-3.977 4.77,2.2 0.778,-1.689 -6.566,-3.026 -5.485,11.899 6.567,3.026 z"
           style="fill:#206634;fill-opacity:1;fill-rule:nonzero;stroke:none"
           id="path440"
           inkscape:connector-curvature="0" /></g><g
         id="g442"
         transform="translate(184.80155,330.04097)"><path
           d="m 0,0 -0.038,-2.341 c -1.128,0.975 -2.302,1.471 -3.524,1.491 -1.346,0.022 -2.488,-0.443 -3.426,-1.395 -0.943,-0.947 -1.426,-2.116 -1.449,-3.508 -0.022,-1.374 0.423,-2.542 1.335,-3.501 0.913,-0.96 2.042,-1.45 3.389,-1.473 0.695,-0.01 1.288,0.092 1.778,0.311 0.273,0.109 0.557,0.257 0.852,0.445 0.294,0.187 0.605,0.414 0.932,0.68 l -0.039,-2.384 c -1.142,-0.621 -2.335,-0.921 -3.579,-0.901 -1.873,0.03 -3.46,0.71 -4.762,2.038 -1.297,1.34 -1.93,2.939 -1.9,4.801 0.027,1.669 0.603,3.147 1.727,4.436 1.384,1.578 3.153,2.351 5.308,2.316 C -2.219,0.996 -1.087,0.657 0,0"
           style="fill:#206634;fill-opacity:1;fill-rule:nonzero;stroke:none"
           id="path444"
           inkscape:connector-curvature="0" /></g><g
         id="g446"
         transform="translate(201.41435,321.92086)"><path
           d="M 0,0 0.605,-0.167 C 2.41,-0.668 3.503,-0.229 3.886,1.151 4.244,2.442 3.545,3.332 1.79,3.819 L 1.111,4.008 Z M 1.97,-2.104 4.387,-8.569 2.056,-7.924 -0.117,-1.755 -0.46,-1.659 -1.894,-6.828 -3.799,-6.3 -0.298,6.326 1.935,5.707 C 3.603,5.245 4.721,4.598 5.289,3.765 5.913,2.84 6.066,1.806 5.749,0.66 5.5,-0.233 5.031,-0.931 4.341,-1.433 3.649,-1.934 2.859,-2.157 1.97,-2.104"
           style="fill:#206634;fill-opacity:1;fill-rule:nonzero;stroke:none"
           id="path448"
           inkscape:connector-curvature="0" /></g><g
         id="g450"
         transform="translate(229.29715,314.51656)"><path
           d="m 0,0 -4.567,2.594 -1.555,-2.738 4.435,-2.518 -0.918,-1.615 -4.435,2.518 -2.163,-3.807 4.568,-2.595 -0.918,-1.616 -6.287,3.571 6.471,11.393 6.287,-3.572 z"
           style="fill:#206634;fill-opacity:1;fill-rule:nonzero;stroke:none"
           id="path452"
           inkscape:connector-curvature="0" /></g><g
         id="g454"
         transform="translate(237.13456,296.79886)"><path
           d="M 0,0 0.638,-0.622 C 1.274,-1.241 1.868,-1.69 2.42,-1.968 2.979,-2.236 3.58,-2.382 4.22,-2.406 5.537,-2.449 6.692,-1.959 7.687,-0.938 8.69,0.091 9.159,1.261 9.094,2.572 9.031,3.748 8.395,4.924 7.187,6.101 L 6.549,6.723 Z M -2.714,0.048 6.43,9.434 8.399,7.515 C 9.343,6.594 9.998,5.775 10.364,5.056 10.773,4.301 11.004,3.471 11.056,2.568 11.164,0.741 10.517,-0.892 9.116,-2.33 7.71,-3.773 6.069,-4.448 4.191,-4.356 3.25,-4.31 2.417,-4.102 1.692,-3.735 1.004,-3.404 0.184,-2.774 -0.769,-1.847 Z"
           style="fill:#206634;fill-opacity:1;fill-rule:nonzero;stroke:none"
           id="path456"
           inkscape:connector-curvature="0" /></g><g
         id="g458"
         transform="translate(261.75766,284.59376)"><path
           d="m 0,0 -11.036,-7.063 -1.066,1.666 11.036,7.063 z"
           style="fill:#206634;fill-opacity:1;fill-rule:nonzero;stroke:none"
           id="path460"
           inkscape:connector-curvature="0" /></g><g
         id="g462"
         transform="translate(268.94265,265.74317)"><path
           d="M 0,0 -10.513,-3.988 -11.214,-2.14 -0.701,1.849 -1.77,4.665 -0.032,5.324 2.803,-2.15 1.065,-2.809 Z"
           style="fill:#206634;fill-opacity:1;fill-rule:nonzero;stroke:none"
           id="path464"
           inkscape:connector-curvature="0" /></g><g
         id="g466"
         transform="translate(272.66585,208.48246)"><path
           d="m 0,0 2.249,-0.455 -0.431,-1.65 -2.182,0.709 0.261,-2.287 -1.701,-0.098 0.004,2.297 -2.091,-0.954 -0.621,1.583 2.187,0.717 -1.559,1.689 1.319,1.085 1.347,-1.861 1.128,2.003 1.435,-0.919 z"
           style="fill:#206634;fill-opacity:1;fill-rule:nonzero;stroke:none"
           id="path468"
           inkscape:connector-curvature="0" /></g><g
         id="g470"
         transform="translate(263.74886,185.78707)"><path
           d="m 0,0 2.063,-1.003 -0.829,-1.49 -1.936,1.233 -0.318,-2.281 -1.672,0.329 0.578,2.223 -2.263,-0.401 -0.206,1.689 2.297,0.148 -1.088,2.024 1.548,0.721 0.84,-2.137 1.593,1.657 1.16,-1.248 z"
           style="fill:#206634;fill-opacity:1;fill-rule:nonzero;stroke:none"
           id="path472"
           inkscape:connector-curvature="0" /></g><g
         id="g474"
         transform="translate(249.47195,166.03706)"><path
           d="m 0,0 1.751,-1.482 -1.173,-1.24 -1.57,1.675 -0.873,-2.13 -1.538,0.732 1.11,2.011 -2.292,0.172 0.218,1.688 L -2.104,1 -2.656,3.23 -0.978,3.546 -0.694,1.267 1.26,2.478 2.075,0.98 Z"
           style="fill:#206634;fill-opacity:1;fill-rule:nonzero;stroke:none"
           id="path476"
           inkscape:connector-curvature="0" /></g><g
         id="g478"
         transform="translate(230.77085,150.44336)"><path
           d="m 0,0 1.33,-1.871 -1.443,-0.909 -1.107,2.009 -1.373,-1.847 -1.309,1.09 1.573,1.674 -2.178,0.733 0.629,1.58 2.086,-0.971 0.017,2.297 L -0.071,3.676 -0.36,1.397 1.833,2.088 2.252,0.437 Z"
           style="fill:#206634;fill-opacity:1;fill-rule:nonzero;stroke:none"
           id="path480"
           inkscape:connector-curvature="0" /></g><g
         id="g482"
         transform="translate(208.75615,139.96587)"><path
           d="m 0,0 0.821,-2.143 -1.624,-0.521 -0.571,2.224 -1.79,-1.449 -0.996,1.383 1.941,1.229 -1.927,1.254 1.003,1.373 1.779,-1.461 0.589,2.22 L 0.848,3.578 0,1.443 2.296,1.565 2.291,-0.139 Z"
           style="fill:#206634;fill-opacity:1;fill-rule:nonzero;stroke:none"
           id="path484"
           inkscape:connector-curvature="0" /></g><g
         id="g486"
         transform="translate(178.29965,146.59666)"><path
           d="m 0,0 2.573,-7.915 h 8.321 l -6.732,-4.892 2.57,-7.916 -6.732,4.892 -6.734,-4.892 2.571,7.916 -6.732,4.892 h 8.322 z"
           style="fill:#419939;fill-opacity:1;fill-rule:nonzero;stroke:none"
           id="path488"
           inkscape:connector-curvature="0" /></g></g><g
       id="g250"><g
         id="g252"
         clip-path="url(#clipPath256)"><g
           id="g258"><g
             id="g260"><path
               d="m 480.272,298.149 h -0.013 -21.692 -0.975 -21.689 -0.02 -0.153 c -0.619,0 -1.177,-0.247 -1.584,-0.649 v 0 L 411.98,285.301 c -0.721,-0.399 -1.137,-1.133 -1.163,-1.901 v 0 l -21.982,-37.496 c -10e-4,-0.002 -0.003,-0.004 -0.004,-0.008 v 0 l -0.015,-0.024 c -0.005,-0.01 -0.011,-0.018 -0.015,-0.027 v 0 c -0.017,-0.031 -0.033,-0.059 -0.046,-0.088 v 0 c -0.013,-0.025 -0.023,-0.049 -0.037,-0.074 v 0 c -0.006,-0.013 -0.012,-0.028 -0.02,-0.042 v 0 c -0.011,-0.028 -0.024,-0.058 -0.036,-0.088 v 0 c -0.008,-0.023 -0.02,-0.047 -0.028,-0.072 v 0 c -0.005,-0.016 -0.01,-0.034 -0.016,-0.051 v 0 c -0.009,-0.03 -0.016,-0.058 -0.026,-0.087 v 0 c -0.006,-0.023 -0.013,-0.045 -0.019,-0.068 v 0 c -0.004,-0.021 -0.011,-0.044 -0.015,-0.065 v 0 c -0.006,-0.026 -0.009,-0.053 -0.015,-0.079 v 0 c -0.004,-0.022 -0.008,-0.046 -0.012,-0.067 v 0 c -0.003,-0.027 -0.007,-0.052 -0.009,-0.078 v 0 c -0.004,-0.023 -0.006,-0.048 -0.007,-0.071 v 0 c -0.002,-0.023 -0.004,-0.046 -0.005,-0.069 v 0 c -0.002,-0.029 -0.002,-0.057 -0.002,-0.087 v 0 c 0,-0.009 -0.002,-0.018 -0.002,-0.029 v 0 -25.493 c 0,-0.009 0.002,-0.018 0.002,-0.026 v 0 c 0,-0.049 0.003,-0.098 0.006,-0.146 v 0 c 0.002,-0.027 0.002,-0.054 0.006,-0.081 v 0 c 0.005,-0.044 0.014,-0.089 0.021,-0.133 v 0 c 0.006,-0.029 0.01,-0.061 0.017,-0.091 v 0 c 0.008,-0.037 0.018,-0.074 0.028,-0.11 v 0 c 0.01,-0.036 0.019,-0.074 0.03,-0.109 v 0 c 0.011,-0.03 0.022,-0.061 0.034,-0.089 v 0 c 0.015,-0.043 0.03,-0.083 0.048,-0.124 v 0 c 0.011,-0.025 0.025,-0.05 0.036,-0.075 v 0 c 0.021,-0.043 0.043,-0.085 0.066,-0.126 v 0 c 0.005,-0.008 0.007,-0.016 0.012,-0.025 v 0 l 22.571,-38.77 c 0.002,-0.002 0.002,-0.002 0.003,-0.004 v 0 c 0.047,-0.081 0.101,-0.158 0.159,-0.233 v 0 c 0.013,-0.017 0.026,-0.032 0.039,-0.049 v 0 c 0.045,-0.055 0.09,-0.107 0.141,-0.158 v 0 c 0.017,-0.018 0.038,-0.036 0.056,-0.056 v 0 c 0.054,-0.051 0.111,-0.102 0.173,-0.149 v 0 c 0.011,-0.008 0.021,-0.019 0.033,-0.027 v 0 c 0.061,-0.045 0.127,-0.088 0.192,-0.127 v 0 l 22.297,-13.278 c 0.007,-0.006 0.016,-0.009 0.025,-0.014 v 0 c 0.034,-0.02 0.069,-0.038 0.104,-0.057 v 0 c 0.017,-0.007 0.034,-0.016 0.049,-0.023 v 0 c 0.091,-0.044 0.186,-0.083 0.284,-0.115 v 0 c 0.001,-0.001 0.005,-0.002 0.009,-0.003 v 0 c 0.021,-0.006 0.04,-0.011 0.061,-0.018 v 0 c 0.027,-0.007 0.054,-0.014 0.079,-0.02 v 0 c 0.052,-0.013 0.104,-0.024 0.158,-0.033 v 0 c 0.019,-0.003 0.039,-0.007 0.058,-0.011 v 0 c 0.02,-0.002 0.041,-0.005 0.062,-0.007 v 0 c 0.076,-0.01 0.152,-0.013 0.23,-0.015 v 0 c 0.008,0 0.015,-0.001 0.022,-0.001 v 0 c 0.005,0 0.008,-0.002 0.008,-0.002 v 0 c 0.01,0 0.014,0.002 0.021,0.002 v 0 h 22.278 c 0.054,0 0.105,0.004 0.156,0.006 v 0 c 0.051,-0.002 0.103,-0.006 0.153,-0.006 v 0 h 22.28 c 0.007,0 0.012,-0.002 0.016,-0.002 v 0 c 0.004,0 0.008,0.002 0.014,0.002 v 0 c 0.006,0 0.013,0.001 0.02,0.001 v 0 c 0.078,0.002 0.156,0.005 0.23,0.015 v 0 c 0.021,0.002 0.043,0.005 0.063,0.007 v 0 c 0.019,0.004 0.037,0.008 0.057,0.011 v 0 c 0.054,0.009 0.106,0.02 0.159,0.033 v 0 c 0.026,0.006 0.052,0.013 0.077,0.02 v 0 c 0.023,0.007 0.042,0.012 0.064,0.018 v 0 c 0.002,0.001 0.004,0.002 0.009,0.003 v 0 c 0.096,0.032 0.191,0.071 0.282,0.115 v 0 c 0.017,0.007 0.034,0.016 0.05,0.023 v 0 c 0.035,0.019 0.07,0.037 0.103,0.057 v 0 c 0.009,0.005 0.019,0.008 0.028,0.014 v 0 l 22.293,13.278 c 0.07,0.039 0.133,0.082 0.195,0.127 v 0 c 0.011,0.008 0.021,0.019 0.029,0.026 v 0 c 0.064,0.048 0.121,0.099 0.176,0.151 v 0 c 0.02,0.019 0.037,0.037 0.056,0.055 v 0 c 0.048,0.051 0.097,0.103 0.141,0.158 v 0 c 0.013,0.017 0.026,0.032 0.041,0.049 v 0 c 0.057,0.075 0.108,0.152 0.155,0.233 v 0 c 0.003,0.002 0.003,0.002 0.003,0.004 v 0 l 22.572,38.77 c 0.004,0.009 0.01,0.017 0.014,0.025 v 0 c 0.024,0.041 0.044,0.083 0.065,0.126 v 0 c 0.013,0.025 0.025,0.05 0.036,0.075 v 0 c 0.017,0.041 0.034,0.081 0.047,0.124 v 0 c 0.013,0.028 0.023,0.059 0.033,0.089 v 0 c 0.014,0.035 0.022,0.073 0.031,0.109 v 0 c 0.011,0.036 0.022,0.073 0.029,0.11 v 0 c 0.005,0.03 0.012,0.061 0.017,0.091 v 0 c 0.008,0.044 0.016,0.089 0.02,0.134 v 0 c 10e-4,0.026 0.003,0.053 0.006,0.079 v 0 c 0.003,0.049 0.006,0.098 0.006,0.147 v 0 c 0,0.008 0.002,0.017 0.002,0.026 v 0 25.493 c 0,0.011 -0.002,0.02 -0.002,0.029 v 0 c 0,0.03 -10e-4,0.058 -10e-4,0.087 v 0 c -0.002,0.023 -0.004,0.046 -0.005,0.069 v 0 c -0.003,0.023 -0.005,0.048 -0.006,0.071 v 0 c -0.004,0.026 -0.006,0.051 -0.01,0.078 v 0 c -0.005,0.022 -0.008,0.045 -0.012,0.067 v 0 c -0.006,0.026 -0.011,0.053 -0.015,0.079 v 0 c -0.007,0.021 -0.01,0.044 -0.017,0.065 v 0 c -0.005,0.023 -0.012,0.045 -0.018,0.068 v 0 c -0.007,0.029 -0.017,0.057 -0.026,0.087 v 0 c -0.006,0.017 -0.011,0.035 -0.017,0.051 v 0 c -0.008,0.025 -0.017,0.049 -0.027,0.072 v 0 c -0.012,0.03 -0.024,0.06 -0.037,0.088 v 0 c -0.005,0.014 -0.01,0.029 -0.017,0.042 v 0 c -0.013,0.025 -0.025,0.049 -0.037,0.074 v 0 c -0.016,0.029 -0.032,0.057 -0.046,0.088 v 0 c -0.007,0.009 -0.009,0.017 -0.017,0.027 v 0 l -0.014,0.024 c -10e-4,0.004 -10e-4,0.006 -0.004,0.008 v 0 l -21.98,37.496 c -0.026,0.768 -0.444,1.502 -1.168,1.901 v 0 L 482.012,297.5 c -0.408,0.402 -0.965,0.649 -1.582,0.649 v 0 z m -60.721,-13.835 16.935,9.322 h 21.106 0.975 21.105 l 16.938,-9.322 -38.53,-7.573 z m 40.941,-51.021 v 39.322 l 41.197,8.096 20.934,-35.712 -27.709,-31.388 z m -66.955,11.706 20.935,35.712 41.195,-8.096 v -39.322 l -34.422,-19.682 z m 103.843,-35.415 25.758,29.179 v -18.915 l -21.97,-37.739 -16.521,-9.839 z m -82.389,-27.475 -21.971,37.739 v 18.915 l 25.76,-29.179 12.73,-37.314 z m 8.517,27.597 34.572,19.767 34.571,-19.767 -13.735,-40.259 h -20.683 c -0.05,0 -0.102,-0.005 -0.153,-0.008 v 0 c -0.051,0.003 -0.102,0.008 -0.156,0.008 v 0 h -20.679 z"
               style="fill:url(#linearGradient266);stroke:none"
               id="path268"
               inkscape:connector-curvature="0" /></g></g></g></g><g
       id="g314"
       transform="translate(583.3652,231.7305)"><path
         d="m 0,0 c 0,69.193 -56.092,125.285 -125.285,125.285 -69.194,0 -125.286,-56.092 -125.286,-125.285 0,-69.192 56.092,-125.286 125.286,-125.286 C -56.092,-125.286 0,-69.192 0,0 Z"
         style="fill:none;stroke:#231f20;stroke-width:3;stroke-linecap:butt;stroke-linejoin:miter;stroke-miterlimit:4;stroke-dasharray:none;stroke-opacity:1"
         id="path316"
         inkscape:connector-curvature="0" /></g><text
       transform="matrix(1,0,0,-1,263.3887,443.7354)"
       style="font-variant:normal;font-weight:normal;font-stretch:normal;font-size:12px;font-family:'Myriad Pro';-inkscape-font-specification:MyriadPro-Regular;writing-mode:lr-tb;fill:#231f20;fill-opacity:1;fill-rule:nonzero;stroke:none"
       id="text498"><tspan
         x="0 6.5040002 9.3360004 15.12 20.496 26.124001 28.667999 34.452 41.112 47.880001 49.992001 60.084 66.744003 69.552002 73.452003"
         y="0"
         sodipodi:role="line"
         id="tspan490">Black and White</tspan><tspan
         x="-8.4960003 -5.1479998 1.4400001 5.3639998 7.908 13.212 19.799999 22.608 29.268 31.812 38.639999 42.445202 49.033199 55.801201 62.4132 67.946404 71.918404 74.726402 81.3144"
         y="14.4"
         sodipodi:role="line"
         id="tspan492">for coin production</tspan><tspan
         x="26.351999 33.18 39.768002 42.599998 49.188"
         y="337.29599"
         sodipodi:role="line"
         id="tspan494">Color</tspan><tspan
         x="-13.8 -10.452 -3.8640001 0.059999999 2.6040001 9.1920004 13.164 19.823999 25.836 29.76 32.304001 38.088001 44.916 51.743999 54.576 57.383999 62.759998 68.496002 72.468002 75.276001 81.863998 88.524002"
         y="351.69601"
         sodipodi:role="line"
         id="tspan496">for other applications</tspan></text>
</g></svg>