<?xml version="1.0" encoding="UTF-8" standalone="no"?>
<!-- Created with Inkscape (http://www.inkscape.org/) -->

<svg
   xmlns:dc="http://purl.org/dc/elements/1.1/"
   xmlns:cc="http://creativecommons.org/ns#"
   xmlns:rdf="http://www.w3.org/1999/02/22-rdf-syntax-ns#"
   xmlns:svg="http://www.w3.org/2000/svg"
   xmlns="http://www.w3.org/2000/svg"
   xmlns:sodipodi="http://sodipodi.sourceforge.net/DTD/sodipodi-0.dtd"
   xmlns:inkscape="http://www.inkscape.org/namespaces/inkscape"
   width="100mm"
   height="100mm"
   viewBox="0 0 100 100"
   version="1.1"
   id="svg5158"
   inkscape:version="0.92.5 (2060ec1f9f, 2020-04-08)"
   sodipodi:docname="logo-color.svg"
   inkscape:export-filename="/home/wind/Downloads/baba/fwdzwabitcoin/logo-color.png"
   inkscape:export-xdpi="388.28"
   inkscape:export-ydpi="388.28">
  <defs
     id="defs5152">
    <clipPath
       clipPathUnits="userSpaceOnUse"
       id="clipPath256">
      <path
         d="m 480.272,298.149 h -0.013 -21.692 -0.975 -21.689 -0.02 -0.153 c -0.619,0 -1.177,-0.247 -1.584,-0.649 v 0 L 411.98,285.301 c -0.721,-0.399 -1.137,-1.133 -1.163,-1.901 v 0 l -21.982,-37.496 c -10e-4,-0.002 -0.003,-0.004 -0.004,-0.008 v 0 l -0.015,-0.024 c -0.005,-0.01 -0.011,-0.018 -0.015,-0.027 v 0 c -0.017,-0.031 -0.033,-0.059 -0.046,-0.088 v 0 c -0.013,-0.025 -0.023,-0.049 -0.037,-0.074 v 0 c -0.006,-0.013 -0.012,-0.028 -0.02,-0.042 v 0 c -0.011,-0.028 -0.024,-0.058 -0.036,-0.088 v 0 c -0.008,-0.023 -0.02,-0.047 -0.028,-0.072 v 0 c -0.005,-0.016 -0.01,-0.034 -0.016,-0.051 v 0 c -0.009,-0.03 -0.016,-0.058 -0.026,-0.087 v 0 c -0.006,-0.023 -0.013,-0.045 -0.019,-0.068 v 0 c -0.004,-0.021 -0.011,-0.044 -0.015,-0.065 v 0 c -0.006,-0.026 -0.009,-0.053 -0.015,-0.079 v 0 c -0.004,-0.022 -0.008,-0.046 -0.012,-0.067 v 0 c -0.003,-0.027 -0.007,-0.052 -0.009,-0.078 v 0 c -0.004,-0.023 -0.006,-0.048 -0.007,-0.071 v 0 c -0.002,-0.023 -0.004,-0.046 -0.005,-0.069 v 0 c -0.002,-0.029 -0.002,-0.057 -0.002,-0.087 v 0 c 0,-0.009 -0.002,-0.018 -0.002,-0.029 v 0 -25.493 c 0,-0.009 0.002,-0.018 0.002,-0.026 v 0 c 0,-0.049 0.003,-0.098 0.006,-0.146 v 0 c 0.002,-0.027 0.002,-0.054 0.006,-0.081 v 0 c 0.005,-0.044 0.014,-0.089 0.021,-0.133 v 0 c 0.006,-0.029 0.01,-0.061 0.017,-0.091 v 0 c 0.008,-0.037 0.018,-0.074 0.028,-0.11 v 0 c 0.01,-0.036 0.019,-0.074 0.03,-0.109 v 0 c 0.011,-0.03 0.022,-0.061 0.034,-0.089 v 0 c 0.015,-0.043 0.03,-0.083 0.048,-0.124 v 0 c 0.011,-0.025 0.025,-0.05 0.036,-0.075 v 0 c 0.021,-0.043 0.043,-0.085 0.066,-0.126 v 0 c 0.005,-0.008 0.007,-0.016 0.012,-0.025 v 0 l 22.571,-38.77 c 0.002,-0.002 0.002,-0.002 0.003,-0.004 v 0 c 0.047,-0.081 0.101,-0.158 0.159,-0.233 v 0 c 0.013,-0.017 0.026,-0.032 0.039,-0.049 v 0 c 0.045,-0.055 0.09,-0.107 0.141,-0.158 v 0 c 0.017,-0.018 0.038,-0.036 0.056,-0.056 v 0 c 0.054,-0.051 0.111,-0.102 0.173,-0.149 v 0 c 0.011,-0.008 0.021,-0.019 0.033,-0.027 v 0 c 0.061,-0.045 0.127,-0.088 0.192,-0.127 v 0 l 22.297,-13.278 c 0.007,-0.006 0.016,-0.009 0.025,-0.014 v 0 c 0.034,-0.02 0.069,-0.038 0.104,-0.057 v 0 c 0.017,-0.007 0.034,-0.016 0.049,-0.023 v 0 c 0.091,-0.044 0.186,-0.083 0.284,-0.115 v 0 c 0.001,-0.001 0.005,-0.002 0.009,-0.003 v 0 c 0.021,-0.006 0.04,-0.011 0.061,-0.018 v 0 c 0.027,-0.007 0.054,-0.014 0.079,-0.02 v 0 c 0.052,-0.013 0.104,-0.024 0.158,-0.033 v 0 c 0.019,-0.003 0.039,-0.007 0.058,-0.011 v 0 c 0.02,-0.002 0.041,-0.005 0.062,-0.007 v 0 c 0.076,-0.01 0.152,-0.013 0.23,-0.015 v 0 c 0.008,0 0.015,-0.001 0.022,-0.001 v 0 c 0.005,0 0.008,-0.002 0.008,-0.002 v 0 c 0.01,0 0.014,0.002 0.021,0.002 v 0 h 22.278 c 0.054,0 0.105,0.004 0.156,0.006 v 0 c 0.051,-0.002 0.103,-0.006 0.153,-0.006 v 0 h 22.28 c 0.007,0 0.012,-0.002 0.016,-0.002 v 0 c 0.004,0 0.008,0.002 0.014,0.002 v 0 c 0.006,0 0.013,0.001 0.02,0.001 v 0 c 0.078,0.002 0.156,0.005 0.23,0.015 v 0 c 0.021,0.002 0.043,0.005 0.063,0.007 v 0 c 0.019,0.004 0.037,0.008 0.057,0.011 v 0 c 0.054,0.009 0.106,0.02 0.159,0.033 v 0 c 0.026,0.006 0.052,0.013 0.077,0.02 v 0 c 0.023,0.007 0.042,0.012 0.064,0.018 v 0 c 0.002,0.001 0.004,0.002 0.009,0.003 v 0 c 0.096,0.032 0.191,0.071 0.282,0.115 v 0 c 0.017,0.007 0.034,0.016 0.05,0.023 v 0 c 0.035,0.019 0.07,0.037 0.103,0.057 v 0 c 0.009,0.005 0.019,0.008 0.028,0.014 v 0 l 22.293,13.278 c 0.07,0.039 0.133,0.082 0.195,0.127 v 0 c 0.011,0.008 0.021,0.019 0.029,0.026 v 0 c 0.064,0.048 0.121,0.099 0.176,0.151 v 0 c 0.02,0.019 0.037,0.037 0.056,0.055 v 0 c 0.048,0.051 0.097,0.103 0.141,0.158 v 0 c 0.013,0.017 0.026,0.032 0.041,0.049 v 0 c 0.057,0.075 0.108,0.152 0.155,0.233 v 0 c 0.003,0.002 0.003,0.002 0.003,0.004 v 0 l 22.572,38.77 c 0.004,0.009 0.01,0.017 0.014,0.025 v 0 c 0.024,0.041 0.044,0.083 0.065,0.126 v 0 c 0.013,0.025 0.025,0.05 0.036,0.075 v 0 c 0.017,0.041 0.034,0.081 0.047,0.124 v 0 c 0.013,0.028 0.023,0.059 0.033,0.089 v 0 c 0.014,0.035 0.022,0.073 0.031,0.109 v 0 c 0.011,0.036 0.022,0.073 0.029,0.11 v 0 c 0.005,0.03 0.012,0.061 0.017,0.091 v 0 c 0.008,0.044 0.016,0.089 0.02,0.134 v 0 c 10e-4,0.026 0.003,0.053 0.006,0.079 v 0 c 0.003,0.049 0.006,0.098 0.006,0.147 v 0 c 0,0.008 0.002,0.017 0.002,0.026 v 0 25.493 c 0,0.011 -0.002,0.02 -0.002,0.029 v 0 c 0,0.03 -10e-4,0.058 -10e-4,0.087 v 0 c -0.002,0.023 -0.004,0.046 -0.005,0.069 v 0 c -0.003,0.023 -0.005,0.048 -0.006,0.071 v 0 c -0.004,0.026 -0.006,0.051 -0.01,0.078 v 0 c -0.005,0.022 -0.008,0.045 -0.012,0.067 v 0 c -0.006,0.026 -0.011,0.053 -0.015,0.079 v 0 c -0.007,0.021 -0.01,0.044 -0.017,0.065 v 0 c -0.005,0.023 -0.012,0.045 -0.018,0.068 v 0 c -0.007,0.029 -0.017,0.057 -0.026,0.087 v 0 c -0.006,0.017 -0.011,0.035 -0.017,0.051 v 0 c -0.008,0.025 -0.017,0.049 -0.027,0.072 v 0 c -0.012,0.03 -0.024,0.06 -0.037,0.088 v 0 c -0.005,0.014 -0.01,0.029 -0.017,0.042 v 0 c -0.013,0.025 -0.025,0.049 -0.037,0.074 v 0 c -0.016,0.029 -0.032,0.057 -0.046,0.088 v 0 c -0.007,0.009 -0.009,0.017 -0.017,0.027 v 0 l -0.014,0.024 c -10e-4,0.004 -10e-4,0.006 -0.004,0.008 v 0 l -21.98,37.496 c -0.026,0.768 -0.444,1.502 -1.168,1.901 v 0 L 482.012,297.5 c -0.408,0.402 -0.965,0.649 -1.582,0.649 v 0 z m -60.721,-13.835 16.935,9.322 h 21.106 0.975 21.105 l 16.938,-9.322 -38.53,-7.573 z m 40.941,-51.021 v 39.322 l 41.197,8.096 20.934,-35.712 -27.709,-31.388 z m -66.955,11.706 20.935,35.712 41.195,-8.096 v -39.322 l -34.422,-19.682 z m 103.843,-35.415 25.758,29.179 v -18.915 l -21.97,-37.739 -16.521,-9.839 z m -82.389,-27.475 -21.971,37.739 v 18.915 l 25.76,-29.179 12.73,-37.314 z m 8.517,27.597 34.572,19.767 34.571,-19.767 -13.735,-40.259 h -20.683 c -0.05,0 -0.102,-0.005 -0.153,-0.008 v 0 c -0.051,0.003 -0.102,0.008 -0.156,0.008 v 0 h -20.679 z"
         id="path254"
         inkscape:connector-curvature="0" />
    </clipPath>
    <linearGradient
       x1="0"
       y1="0"
       x2="1"
       y2="0"
       gradientUnits="userSpaceOnUse"
       gradientTransform="matrix(0,-104.6508,-104.6508,0,458.07928,273.90381)"
       spreadMethod="pad"
       id="linearGradient266">
      <stop
         style="stop-opacity:1;stop-color:#82cc2a"
         offset="0"
         id="stop262" />
      <stop
         style="stop-opacity:1;stop-color:#1f6634"
         offset="1"
         id="stop264" />
    </linearGradient>
    <clipPath
       clipPathUnits="userSpaceOnUse"
       id="clipPath240">
      <path
         d="M 391.599,295.959 H 525.041 V 178.111 H 391.599 Z"
         id="path238"
         inkscape:connector-curvature="0" />
    </clipPath>
  </defs>
  <sodipodi:namedview
     id="base"
     pagecolor="#ffffff"
     bordercolor="#666666"
     borderopacity="1.0"
     inkscape:pageopacity="0.0"
     inkscape:pageshadow="2"
     inkscape:zoom="0.98994949"
     inkscape:cx="-149.94252"
     inkscape:cy="206.22196"
     inkscape:document-units="mm"
     inkscape:current-layer="layer1"
     showgrid="false"
     fit-margin-top="0"
     fit-margin-left="0"
     fit-margin-right="0"
     fit-margin-bottom="0"
     inkscape:window-width="1920"
     inkscape:window-height="1055"
     inkscape:window-x="1366"
     inkscape:window-y="25"
     inkscape:window-maximized="1" />
  <metadata
     id="metadata5155">
    <rdf:RDF>
      <cc:Work
         rdf:about="">
        <dc:format>image/svg+xml</dc:format>
        <dc:type
           rdf:resource="http://purl.org/dc/dcmitype/StillImage" />
        <dc:title></dc:title>
      </cc:Work>
    </rdf:RDF>
  </metadata>
  <g
     inkscape:label="Layer 1"
     inkscape:groupmode="layer"
     id="layer1"
     transform="translate(-5.9217047,-194.1021)">
    <g
       transform="matrix(0.35277777,0,0,-0.35277777,63.74399,210.08574)"
       id="g222">
      <path
         inkscape:connector-curvature="0"
         id="path224"
         style="fill:#419939;fill-opacity:1;fill-rule:nonzero;stroke:none"
         d="m 0,0 -17.367,-17.364 c 20.302,-0.939 39.251,-9.286 53.719,-23.752 15.374,-15.375 23.84,-35.817 23.84,-57.56 0,-11.022 -2.181,-21.71 -6.33,-31.575 l 6.379,-23.807 27.79,7.447 c 0.22,0.5 0.444,0.997 0.658,1.501 6.222,14.717 9.379,30.339 9.379,46.434 0,16.095 -3.157,31.717 -9.379,46.435 -6.01,14.206 -14.606,26.96 -25.556,37.908 C 52.185,-3.385 39.43,5.213 25.224,11.222 c -14.53,6.146 -29.944,9.294 -45.82,9.372 z" />
    </g>
    <g
       transform="matrix(0.35277777,0,0,-0.35277777,82.26034,269.17154)"
       id="g226">
      <path
         inkscape:connector-curvature="0"
         id="path228"
         style="fill:#206634;fill-opacity:1;fill-rule:nonzero;stroke:none"
         d="M 0,0 -6.225,23.237 C -9.112,18.982 -12.419,14.968 -16.136,11.251 -31.51,-4.123 -51.955,-12.59 -73.695,-12.59 c -21.746,0 -42.188,8.467 -57.561,23.841 -3.022,3.02 -5.77,6.24 -8.247,9.624 l -24.39,6.536 -7.318,-27.314 c 3.914,-5.545 8.31,-10.766 13.17,-15.627 10.949,-10.949 23.705,-19.547 37.909,-25.557 14.718,-6.225 30.34,-9.381 46.437,-9.381 16.091,0 31.716,3.156 46.431,9.381 14.206,6.01 26.961,14.608 37.91,25.557 7.03,7.03 13.089,14.81 18.117,23.238 z" />
    </g>
    <g
       transform="matrix(0.35277777,0,0,-0.35277777,19.072835,264.59682)"
       id="g230">
      <path
         inkscape:connector-curvature="0"
         id="path232"
         style="fill:#82cc2a;fill-opacity:1;fill-rule:nonzero;stroke:none"
         d="M 0,0 7.467,27.872 31.617,21.4 c -4.976,10.646 -7.601,22.342 -7.601,34.444 0,21.743 8.466,42.184 23.842,57.559 12.38,12.38 28.047,20.278 45.031,22.886 L 111.12,154.52 91.344,174.297 C 80.209,172.991 69.368,170.135 58.982,165.741 44.778,159.732 32.022,151.135 21.073,140.187 10.126,129.238 1.529,116.484 -4.48,102.278 c -6.224,-14.717 -9.382,-30.34 -9.382,-46.434 0,-16.095 3.158,-31.717 9.382,-46.435 C -3.12,6.195 -1.624,3.061 0,0" />
    </g>
    <g
       transform="matrix(0.35277777,0,0,-0.35277777,-105.33887,326.58062)"
       id="g234">
      <g
         id="g236" />
      <g
         id="g248">
        <g
           style="opacity:0.11000103"
           id="g246"
           clip-path="url(#clipPath240)">
          <g
             id="g244"
             transform="translate(502.1104,183.0898)">
            <path
               inkscape:connector-curvature="0"
               id="path242"
               style="fill:#206634;fill-opacity:1;fill-rule:nonzero;stroke:none"
               d="M 0,0 -0.422,-0.719 -41.618,7.377 V 46.699 L -7.196,66.38 20.513,34.994 19.537,33.332 c 0.502,0.016 1.002,0.002 1.498,-0.041 0.152,0.417 0.303,0.835 0.455,1.255 0.01,0.029 0.021,0.06 0.029,0.092 -0.041,0.974 0.039,1.954 0.25,2.942 0.335,0.927 0.67,1.855 1.006,2.781 0.046,0.093 0.106,0.179 0.156,0.27 -0.81,0.806 -1.431,1.658 -1.904,2.573 v -1.975 l -25.757,29.179 -12.733,37.314 1.569,-0.935 c -0.614,1.281 -1,2.713 -1.081,4.273 -0.005,0.115 0.002,0.229 0,0.344 -1.506,0.255 -3.025,0.444 -4.543,0.632 -0.879,0.11 -1.757,0.407 -2.593,0.833 -0.094,-0.79 -0.267,-1.569 -0.523,-2.325 h 1.44 L -9.459,70.286 -44.03,50.52 l -34.573,19.766 13.738,40.258 h 1.178 c -0.208,0.461 -0.379,0.936 -0.525,1.421 -0.874,-0.506 -1.816,-0.966 -2.897,-1.398 -1.312,-0.525 -2.606,-0.814 -3.907,-0.955 -0.233,-0.956 -0.586,-1.884 -1.043,-2.759 l 1.459,0.869 -12.73,-37.314 -25.76,-29.179 v 6.282 c -0.366,-0.311 -0.735,-0.591 -1.1,-0.831 -0.011,-0.007 -0.021,-0.012 -0.033,-0.019 0.102,-1.916 0.114,-3.826 -0.023,-5.751 -0.05,-0.677 -0.143,-1.341 -0.265,-1.994 0.674,-1.327 1.1,-2.821 1.186,-4.461 0.002,-0.027 -0.002,-0.055 0,-0.082 0.288,0.144 0.578,0.283 0.878,0.403 l -0.126,0.218 27.708,31.386 34.422,-19.681 V 7.377 l -41.196,-8.096 -0.748,1.276 c -0.252,-0.175 -0.511,-0.338 -0.778,-0.491 1.497,-1.16 2.956,-2.367 4.46,-3.566 0.201,-0.161 0.632,-0.441 0.955,-0.651 0.18,-0.098 0.354,-0.206 0.536,-0.3 0.358,-0.018 0.71,-0.048 1.06,-0.095 l -0.406,0.225 38.53,7.571 38.53,-7.571 -1.128,-0.621 c 1.107,-0.035 2.217,-0.06 3.316,-0.004 0.395,0.408 0.744,0.766 0.836,0.872 0.761,0.866 1.512,1.74 2.258,2.619 0.166,0.195 0.334,0.386 0.497,0.579 C 0.175,-0.589 0.079,-0.297 0,0" />
          </g>
        </g>
      </g>
    </g>
    <g
       transform="matrix(0.35277777,0,0,-0.35277777,-105.33887,326.58062)"
       id="g250">
      <g
         id="g252"
         clip-path="url(#clipPath256)">
        <g
           id="g258">
          <g
             id="g260">
            <path
               d="m 480.272,298.149 h -0.013 -21.692 -0.975 -21.689 -0.02 -0.153 c -0.619,0 -1.177,-0.247 -1.584,-0.649 v 0 L 411.98,285.301 c -0.721,-0.399 -1.137,-1.133 -1.163,-1.901 v 0 l -21.982,-37.496 c -10e-4,-0.002 -0.003,-0.004 -0.004,-0.008 v 0 l -0.015,-0.024 c -0.005,-0.01 -0.011,-0.018 -0.015,-0.027 v 0 c -0.017,-0.031 -0.033,-0.059 -0.046,-0.088 v 0 c -0.013,-0.025 -0.023,-0.049 -0.037,-0.074 v 0 c -0.006,-0.013 -0.012,-0.028 -0.02,-0.042 v 0 c -0.011,-0.028 -0.024,-0.058 -0.036,-0.088 v 0 c -0.008,-0.023 -0.02,-0.047 -0.028,-0.072 v 0 c -0.005,-0.016 -0.01,-0.034 -0.016,-0.051 v 0 c -0.009,-0.03 -0.016,-0.058 -0.026,-0.087 v 0 c -0.006,-0.023 -0.013,-0.045 -0.019,-0.068 v 0 c -0.004,-0.021 -0.011,-0.044 -0.015,-0.065 v 0 c -0.006,-0.026 -0.009,-0.053 -0.015,-0.079 v 0 c -0.004,-0.022 -0.008,-0.046 -0.012,-0.067 v 0 c -0.003,-0.027 -0.007,-0.052 -0.009,-0.078 v 0 c -0.004,-0.023 -0.006,-0.048 -0.007,-0.071 v 0 c -0.002,-0.023 -0.004,-0.046 -0.005,-0.069 v 0 c -0.002,-0.029 -0.002,-0.057 -0.002,-0.087 v 0 c 0,-0.009 -0.002,-0.018 -0.002,-0.029 v 0 -25.493 c 0,-0.009 0.002,-0.018 0.002,-0.026 v 0 c 0,-0.049 0.003,-0.098 0.006,-0.146 v 0 c 0.002,-0.027 0.002,-0.054 0.006,-0.081 v 0 c 0.005,-0.044 0.014,-0.089 0.021,-0.133 v 0 c 0.006,-0.029 0.01,-0.061 0.017,-0.091 v 0 c 0.008,-0.037 0.018,-0.074 0.028,-0.11 v 0 c 0.01,-0.036 0.019,-0.074 0.03,-0.109 v 0 c 0.011,-0.03 0.022,-0.061 0.034,-0.089 v 0 c 0.015,-0.043 0.03,-0.083 0.048,-0.124 v 0 c 0.011,-0.025 0.025,-0.05 0.036,-0.075 v 0 c 0.021,-0.043 0.043,-0.085 0.066,-0.126 v 0 c 0.005,-0.008 0.007,-0.016 0.012,-0.025 v 0 l 22.571,-38.77 c 0.002,-0.002 0.002,-0.002 0.003,-0.004 v 0 c 0.047,-0.081 0.101,-0.158 0.159,-0.233 v 0 c 0.013,-0.017 0.026,-0.032 0.039,-0.049 v 0 c 0.045,-0.055 0.09,-0.107 0.141,-0.158 v 0 c 0.017,-0.018 0.038,-0.036 0.056,-0.056 v 0 c 0.054,-0.051 0.111,-0.102 0.173,-0.149 v 0 c 0.011,-0.008 0.021,-0.019 0.033,-0.027 v 0 c 0.061,-0.045 0.127,-0.088 0.192,-0.127 v 0 l 22.297,-13.278 c 0.007,-0.006 0.016,-0.009 0.025,-0.014 v 0 c 0.034,-0.02 0.069,-0.038 0.104,-0.057 v 0 c 0.017,-0.007 0.034,-0.016 0.049,-0.023 v 0 c 0.091,-0.044 0.186,-0.083 0.284,-0.115 v 0 c 0.001,-0.001 0.005,-0.002 0.009,-0.003 v 0 c 0.021,-0.006 0.04,-0.011 0.061,-0.018 v 0 c 0.027,-0.007 0.054,-0.014 0.079,-0.02 v 0 c 0.052,-0.013 0.104,-0.024 0.158,-0.033 v 0 c 0.019,-0.003 0.039,-0.007 0.058,-0.011 v 0 c 0.02,-0.002 0.041,-0.005 0.062,-0.007 v 0 c 0.076,-0.01 0.152,-0.013 0.23,-0.015 v 0 c 0.008,0 0.015,-0.001 0.022,-0.001 v 0 c 0.005,0 0.008,-0.002 0.008,-0.002 v 0 c 0.01,0 0.014,0.002 0.021,0.002 v 0 h 22.278 c 0.054,0 0.105,0.004 0.156,0.006 v 0 c 0.051,-0.002 0.103,-0.006 0.153,-0.006 v 0 h 22.28 c 0.007,0 0.012,-0.002 0.016,-0.002 v 0 c 0.004,0 0.008,0.002 0.014,0.002 v 0 c 0.006,0 0.013,0.001 0.02,0.001 v 0 c 0.078,0.002 0.156,0.005 0.23,0.015 v 0 c 0.021,0.002 0.043,0.005 0.063,0.007 v 0 c 0.019,0.004 0.037,0.008 0.057,0.011 v 0 c 0.054,0.009 0.106,0.02 0.159,0.033 v 0 c 0.026,0.006 0.052,0.013 0.077,0.02 v 0 c 0.023,0.007 0.042,0.012 0.064,0.018 v 0 c 0.002,0.001 0.004,0.002 0.009,0.003 v 0 c 0.096,0.032 0.191,0.071 0.282,0.115 v 0 c 0.017,0.007 0.034,0.016 0.05,0.023 v 0 c 0.035,0.019 0.07,0.037 0.103,0.057 v 0 c 0.009,0.005 0.019,0.008 0.028,0.014 v 0 l 22.293,13.278 c 0.07,0.039 0.133,0.082 0.195,0.127 v 0 c 0.011,0.008 0.021,0.019 0.029,0.026 v 0 c 0.064,0.048 0.121,0.099 0.176,0.151 v 0 c 0.02,0.019 0.037,0.037 0.056,0.055 v 0 c 0.048,0.051 0.097,0.103 0.141,0.158 v 0 c 0.013,0.017 0.026,0.032 0.041,0.049 v 0 c 0.057,0.075 0.108,0.152 0.155,0.233 v 0 c 0.003,0.002 0.003,0.002 0.003,0.004 v 0 l 22.572,38.77 c 0.004,0.009 0.01,0.017 0.014,0.025 v 0 c 0.024,0.041 0.044,0.083 0.065,0.126 v 0 c 0.013,0.025 0.025,0.05 0.036,0.075 v 0 c 0.017,0.041 0.034,0.081 0.047,0.124 v 0 c 0.013,0.028 0.023,0.059 0.033,0.089 v 0 c 0.014,0.035 0.022,0.073 0.031,0.109 v 0 c 0.011,0.036 0.022,0.073 0.029,0.11 v 0 c 0.005,0.03 0.012,0.061 0.017,0.091 v 0 c 0.008,0.044 0.016,0.089 0.02,0.134 v 0 c 10e-4,0.026 0.003,0.053 0.006,0.079 v 0 c 0.003,0.049 0.006,0.098 0.006,0.147 v 0 c 0,0.008 0.002,0.017 0.002,0.026 v 0 25.493 c 0,0.011 -0.002,0.02 -0.002,0.029 v 0 c 0,0.03 -10e-4,0.058 -10e-4,0.087 v 0 c -0.002,0.023 -0.004,0.046 -0.005,0.069 v 0 c -0.003,0.023 -0.005,0.048 -0.006,0.071 v 0 c -0.004,0.026 -0.006,0.051 -0.01,0.078 v 0 c -0.005,0.022 -0.008,0.045 -0.012,0.067 v 0 c -0.006,0.026 -0.011,0.053 -0.015,0.079 v 0 c -0.007,0.021 -0.01,0.044 -0.017,0.065 v 0 c -0.005,0.023 -0.012,0.045 -0.018,0.068 v 0 c -0.007,0.029 -0.017,0.057 -0.026,0.087 v 0 c -0.006,0.017 -0.011,0.035 -0.017,0.051 v 0 c -0.008,0.025 -0.017,0.049 -0.027,0.072 v 0 c -0.012,0.03 -0.024,0.06 -0.037,0.088 v 0 c -0.005,0.014 -0.01,0.029 -0.017,0.042 v 0 c -0.013,0.025 -0.025,0.049 -0.037,0.074 v 0 c -0.016,0.029 -0.032,0.057 -0.046,0.088 v 0 c -0.007,0.009 -0.009,0.017 -0.017,0.027 v 0 l -0.014,0.024 c -10e-4,0.004 -10e-4,0.006 -0.004,0.008 v 0 l -21.98,37.496 c -0.026,0.768 -0.444,1.502 -1.168,1.901 v 0 L 482.012,297.5 c -0.408,0.402 -0.965,0.649 -1.582,0.649 v 0 z m -60.721,-13.835 16.935,9.322 h 21.106 0.975 21.105 l 16.938,-9.322 -38.53,-7.573 z m 40.941,-51.021 v 39.322 l 41.197,8.096 20.934,-35.712 -27.709,-31.388 z m -66.955,11.706 20.935,35.712 41.195,-8.096 v -39.322 l -34.422,-19.682 z m 103.843,-35.415 25.758,29.179 v -18.915 l -21.97,-37.739 -16.521,-9.839 z m -82.389,-27.475 -21.971,37.739 v 18.915 l 25.76,-29.179 12.73,-37.314 z m 8.517,27.597 34.572,19.767 34.571,-19.767 -13.735,-40.259 h -20.683 c -0.05,0 -0.102,-0.005 -0.153,-0.008 v 0 c -0.051,0.003 -0.102,0.008 -0.156,0.008 v 0 h -20.679 z"
               style="fill:url(#linearGradient266);stroke:none"
               id="path268"
               inkscape:connector-curvature="0" />
          </g>
        </g>
      </g>
    </g>
    <g
       id="g314"
       transform="matrix(0.35277777,0,0,-0.35277777,100.45941,244.83124)">
      <path
         d="m 0,0 c 0,69.193 -56.092,125.285 -125.285,125.285 -69.194,0 -125.286,-56.092 -125.286,-125.285 0,-69.192 56.092,-125.286 125.286,-125.286 C -56.092,-125.286 0,-69.192 0,0 Z"
         style="fill:none;stroke:#231f20;stroke-width:3;stroke-linecap:butt;stroke-linejoin:miter;stroke-miterlimit:4;stroke-dasharray:none;stroke-opacity:1"
         id="path316"
         inkscape:connector-curvature="0" />
    </g>
  </g>
</svg>
