<?xml version="1.0" encoding="UTF-8" standalone="no"?>
<!-- Created with Inkscape (http://www.inkscape.org/) -->

<svg
   xmlns:dc="http://purl.org/dc/elements/1.1/"
   xmlns:cc="http://creativecommons.org/ns#"
   xmlns:rdf="http://www.w3.org/1999/02/22-rdf-syntax-ns#"
   xmlns:svg="http://www.w3.org/2000/svg"
   xmlns="http://www.w3.org/2000/svg"
   xmlns:sodipodi="http://sodipodi.sourceforge.net/DTD/sodipodi-0.dtd"
   xmlns:inkscape="http://www.inkscape.org/namespaces/inkscape"
   width="100mm"
   height="100mm"
   viewBox="0 0 100 100"
   version="1.1"
   id="svg1616"
   inkscape:export-filename="/home/wind/Downloads/baba/fwdzwabitcoin/logo-white.png"
   inkscape:export-xdpi="388.28"
   inkscape:export-ydpi="388.28"
   inkscape:version="0.92.5 (2060ec1f9f, 2020-04-08)"
   sodipodi:docname="logo-white.svg">
  <defs
     id="defs1610">
    <clipPath
       clipPathUnits="userSpaceOnUse"
       id="clipPath296-1">
      <path
         d="M 392.529,643.114 H 525.302 V 525.856 H 392.529 Z"
         id="path294-5"
         inkscape:connector-curvature="0" />
    </clipPath>
  </defs>
  <sodipodi:namedview
     id="base"
     pagecolor="#ffffff"
     bordercolor="#666666"
     borderopacity="1.0"
     inkscape:pageopacity="0.0"
     inkscape:pageshadow="2"
     inkscape:zoom="0.7"
     inkscape:cx="-144.80877"
     inkscape:cy="-90.952671"
     inkscape:document-units="mm"
     inkscape:current-layer="layer1"
     showgrid="false"
     fit-margin-top="0"
     fit-margin-left="0"
     fit-margin-right="0"
     fit-margin-bottom="0"
     inkscape:pagecheckerboard="true"
     inkscape:window-width="1920"
     inkscape:window-height="1055"
     inkscape:window-x="1366"
     inkscape:window-y="25"
     inkscape:window-maximized="1" />
  <metadata
     id="metadata1613">
    <rdf:RDF>
      <cc:Work
         rdf:about="">
        <dc:format>image/svg+xml</dc:format>
        <dc:type
           rdf:resource="http://purl.org/dc/dcmitype/StillImage" />
        <dc:title></dc:title>
      </cc:Work>
    </rdf:RDF>
  </metadata>
  <g
     inkscape:label="Layer 1"
     inkscape:groupmode="layer"
     id="layer1"
     transform="translate(-61.106225,-24.768766)">
    <g
       transform="matrix(0.35277777,0,0,-0.35277777,155.70091,75.1278)"
       id="g76">
      <path
         d="m 0,0 c 0,69.193 -56.092,125.285 -125.285,125.285 -69.194,0 -125.286,-56.092 -125.286,-125.285 0,-69.193 56.092,-125.286 125.286,-125.286 C -56.092,-125.286 0,-69.193 0,0 Z"
         style="fill:none;stroke:#dce0df;stroke-width:3;stroke-linecap:butt;stroke-linejoin:miter;stroke-miterlimit:4;stroke-dasharray:none;stroke-opacity:1;opacity:1"
         id="path78"
         inkscape:connector-curvature="0" />
    </g>
    <g
       transform="matrix(0.35277777,0,0,-0.35277777,118.94981,40.532111)"
       id="g278">
      <path
         d="m 0,0 -17.279,-17.277 c 20.2,-0.934 39.053,-9.24 53.449,-23.634 15.297,-15.298 23.722,-35.637 23.722,-57.272 0,-10.967 -2.17,-21.601 -6.298,-31.416 l 6.347,-23.688 27.652,7.409 c 0.218,0.498 0.44,0.992 0.653,1.494 6.191,14.643 9.332,30.188 9.332,46.201 0,16.015 -3.141,31.559 -9.332,46.203 -5.98,14.135 -14.534,26.826 -25.429,37.718 C 51.924,-3.368 39.233,5.187 25.098,11.166 10.642,17.282 -4.695,20.413 -20.491,20.491 Z"
         style="fill:#eef0f2;fill-opacity:1;fill-rule:nonzero;stroke:none;opacity:1"
         id="path280"
         inkscape:connector-curvature="0" />
    </g>
    <g
       transform="matrix(0.35277777,0,0,-0.35277777,137.37385,99.32231)"
       id="g282">
      <path
         d="m 0,0 -6.194,23.121 c -2.873,-4.233 -6.163,-8.228 -9.862,-11.926 -15.297,-15.298 -35.639,-23.722 -57.271,-23.722 -21.638,0 -41.976,8.424 -57.273,23.722 -3.006,3.005 -5.742,6.208 -8.206,9.575 l -24.267,6.504 -7.281,-27.178 c 3.894,-5.517 8.267,-10.712 13.102,-15.549 10.896,-10.894 23.587,-19.449 37.72,-25.428 14.645,-6.194 30.189,-9.335 46.205,-9.335 16.012,0 31.556,3.141 46.199,9.335 14.136,5.979 26.826,14.534 37.72,25.428 6.995,6.995 13.024,14.736 18.026,23.122 z"
         style="fill:#eef0f2;fill-opacity:1;fill-rule:nonzero;stroke:none;opacity:1"
         id="path284"
         inkscape:connector-curvature="0" />
    </g>
    <g
       transform="matrix(0.35277777,0,0,-0.35277777,74.502217,94.77067)"
       id="g286">
      <path
         d="m 0,0 7.43,27.733 24.029,-6.44 c -4.952,10.594 -7.563,22.231 -7.563,34.271 0,21.635 8.424,41.974 23.723,57.272 12.319,12.319 27.906,20.177 44.805,22.772 l 18.14,18.139 -19.676,19.678 C 79.808,172.126 69.021,169.284 58.687,164.913 44.554,158.935 31.862,150.379 20.967,139.485 10.075,128.593 1.522,115.902 -4.458,101.767 c -6.193,-14.643 -9.335,-30.188 -9.335,-46.203 0,-16.013 3.142,-31.558 9.335,-46.201 C -3.105,6.165 -1.616,3.046 0,0"
         style="fill:#eef0f2;fill-opacity:1;fill-rule:nonzero;stroke:none;opacity:1"
         id="path288"
         inkscape:connector-curvature="0" />
    </g>
    <g
       id="g290"
       transform="matrix(0.35277777,0,0,-0.35277777,-50.306009,279.43519)">
      <g
         id="g292" />
      <g
         id="g304">
        <g
           style="opacity:0.11000103"
           id="g302"
           clip-path="url(#clipPath296-1)">
          <g
             id="g300"
             transform="translate(502.4863,530.8096)">
            <path
               d="M 0,0 -0.42,-0.715 -41.408,7.34 V 46.465 L -7.159,66.048 20.41,34.819 19.439,33.165 c 0.5,0.017 0.998,0.002 1.492,-0.041 0.15,0.416 0.3,0.832 0.452,1.249 0.01,0.029 0.02,0.061 0.028,0.091 -0.041,0.97 0.04,1.945 0.249,2.928 0.334,0.922 0.668,1.846 1.002,2.768 0.046,0.092 0.105,0.177 0.154,0.267 -0.805,0.802 -1.423,1.651 -1.893,2.562 v -1.966 l -25.63,29.034 -12.668,37.126 1.562,-0.93 c -0.612,1.275 -0.996,2.699 -1.077,4.251 -0.005,0.115 0.002,0.228 0,0.343 -1.499,0.254 -3.009,0.442 -4.519,0.63 -0.876,0.109 -1.749,0.404 -2.58,0.828 -0.095,-0.786 -0.266,-1.562 -0.521,-2.313 h 1.432 L -9.411,69.935 -43.81,50.267 -78.208,69.935 -64.54,109.992 h 1.173 c -0.208,0.458 -0.379,0.931 -0.524,1.413 -0.869,-0.503 -1.807,-0.961 -2.881,-1.39 -1.306,-0.523 -2.594,-0.81 -3.888,-0.951 -0.232,-0.951 -0.582,-1.875 -1.038,-2.746 l 1.451,0.865 -12.666,-37.126 -25.631,-29.034 v 6.25 c -0.364,-0.308 -0.731,-0.588 -1.095,-0.826 -0.011,-0.008 -0.02,-0.012 -0.032,-0.02 0.101,-1.906 0.112,-3.805 -0.023,-5.721 -0.05,-0.673 -0.142,-1.335 -0.264,-1.984 0.671,-1.321 1.095,-2.808 1.18,-4.439 0.002,-0.027 -0.002,-0.054 0,-0.082 0.287,0.143 0.575,0.282 0.874,0.402 l -0.127,0.216 27.571,31.229 34.25,-19.583 V 7.34 l -40.99,-8.055 -0.743,1.269 c -0.252,-0.174 -0.509,-0.336 -0.776,-0.488 1.49,-1.155 2.942,-2.355 4.438,-3.548 0.201,-0.16 0.629,-0.439 0.951,-0.648 0.178,-0.098 0.351,-0.205 0.532,-0.299 0.357,-0.017 0.707,-0.047 1.055,-0.093 l -0.404,0.223 38.337,7.533 38.338,-7.533 -1.123,-0.619 c 1.103,-0.034 2.207,-0.059 3.301,-0.003 0.393,0.405 0.739,0.763 0.831,0.867 0.758,0.862 1.505,1.732 2.248,2.607 0.165,0.193 0.332,0.383 0.494,0.575 C 0.175,-0.585 0.08,-0.295 0,0"
               style="fill:#eef0f2;fill-opacity:1;fill-rule:nonzero;stroke:none;opacity:1"
               id="path298"
               inkscape:connector-curvature="0" />
          </g>
        </g>
      </g>
    </g>
    <g
       transform="matrix(0.35277777,0,0,-0.35277777,111.67582,53.37442)"
       id="g306">
      <path
         d="M 0,0 H 21 L 37.854,-9.275 -0.484,-16.81 -38.822,-9.275 -21.97,0 h 21 z M 63.735,-48.393 36.166,-79.624 1.917,-60.041 v 39.125 l 40.988,8.056 z m -107.61,35.533 40.99,-8.056 v -39.125 l -34.25,-19.583 -27.571,31.231 z m 0.517,-98.109 -21.861,37.55 v 18.821 l 25.631,-29.033 12.666,-37.127 z m 43.026,-12.597 c -0.051,0 -0.102,-0.006 -0.152,-0.009 -0.05,0.003 -0.103,0.009 -0.157,0.009 h -20.574 l -13.668,40.057 34.399,19.668 34.398,-19.668 -13.667,-40.057 z m 64.58,50.147 -21.86,-37.55 -16.438,-9.789 12.668,37.127 25.63,29.033 z m 4.492,24.758 c 0,0.011 -10e-4,0.02 -10e-4,0.03 0,0.029 -0.002,0.057 -0.002,0.085 -0.003,0.024 -0.005,0.046 -0.006,0.069 -0.002,0.023 -0.002,0.048 -0.005,0.071 -0.004,0.026 -0.006,0.052 -0.011,0.077 -0.005,0.023 -0.008,0.044 -0.012,0.067 -0.006,0.027 -0.009,0.054 -0.015,0.079 -0.004,0.021 -0.009,0.043 -0.014,0.064 -0.007,0.024 -0.013,0.046 -0.021,0.069 -0.006,0.029 -0.013,0.056 -0.024,0.086 -0.007,0.017 -0.012,0.034 -0.018,0.051 -0.007,0.024 -0.017,0.049 -0.026,0.072 -0.012,0.029 -0.023,0.059 -0.038,0.088 -0.005,0.013 -0.011,0.027 -0.017,0.04 -0.011,0.025 -0.023,0.05 -0.036,0.074 -0.015,0.029 -0.031,0.057 -0.047,0.087 -0.005,0.009 -0.009,0.018 -0.015,0.027 l -0.014,0.025 c -0.002,0.002 -0.002,0.006 -0.005,0.008 l -21.87,37.308 c -0.026,0.765 -0.44,1.495 -1.16,1.891 L 23.328,3.846 C 22.923,4.245 22.367,4.492 21.753,4.492 H 21.598 21.584 0 -0.97 -22.551 -22.57 -22.723 c -0.615,0 -1.171,-0.247 -1.575,-0.646 L -46.353,-8.293 c -0.717,-0.396 -1.132,-1.126 -1.159,-1.891 l -21.871,-37.308 c -0.001,-0.002 -0.004,-0.006 -0.004,-0.008 l -0.015,-0.025 c -0.006,-0.009 -0.01,-0.018 -0.015,-0.027 -0.017,-0.03 -0.032,-0.058 -0.046,-0.087 -0.013,-0.024 -0.023,-0.049 -0.037,-0.074 -0.007,-0.013 -0.012,-0.027 -0.019,-0.04 -0.011,-0.029 -0.024,-0.059 -0.036,-0.088 -0.008,-0.023 -0.019,-0.048 -0.027,-0.072 -0.006,-0.017 -0.012,-0.034 -0.017,-0.051 -0.007,-0.03 -0.016,-0.057 -0.026,-0.086 -0.007,-0.023 -0.013,-0.045 -0.019,-0.069 -0.004,-0.021 -0.01,-0.043 -0.015,-0.064 -0.005,-0.025 -0.009,-0.052 -0.014,-0.079 -0.005,-0.023 -0.009,-0.045 -0.012,-0.067 -0.003,-0.025 -0.008,-0.051 -0.01,-0.077 -0.002,-0.023 -0.004,-0.048 -0.006,-0.071 -0.002,-0.023 -0.005,-0.045 -0.005,-0.069 -10e-4,-0.028 -10e-4,-0.056 -0.002,-0.085 0,-0.01 -0.003,-0.019 -0.003,-0.03 v -25.365 c 0,-0.009 0.003,-0.017 0.003,-0.026 0.001,-0.049 0.002,-0.097 0.006,-0.145 0.002,-0.027 0.003,-0.053 0.007,-0.08 0.005,-0.044 0.011,-0.089 0.019,-0.133 0.006,-0.03 0.011,-0.061 0.016,-0.09 0.009,-0.037 0.019,-0.074 0.028,-0.111 0.012,-0.036 0.02,-0.073 0.031,-0.108 0.01,-0.03 0.022,-0.06 0.033,-0.089 0.015,-0.042 0.032,-0.082 0.049,-0.122 0.011,-0.026 0.024,-0.05 0.035,-0.075 0.021,-0.043 0.043,-0.085 0.065,-0.126 0.006,-0.008 0.009,-0.016 0.013,-0.024 l 22.459,-38.577 c 0.001,-0.002 0.001,-0.002 0.002,-0.003 0.048,-0.081 0.1,-0.158 0.158,-0.233 0.013,-0.016 0.027,-0.031 0.04,-0.048 0.043,-0.054 0.089,-0.107 0.14,-0.157 0.017,-0.018 0.037,-0.037 0.055,-0.056 0.054,-0.052 0.112,-0.102 0.172,-0.148 0.011,-0.009 0.02,-0.019 0.033,-0.026 0.061,-0.046 0.125,-0.089 0.192,-0.128 l 22.184,-13.211 c 0.008,-0.006 0.017,-0.009 0.026,-0.014 0.033,-0.019 0.068,-0.038 0.102,-0.057 0.018,-0.007 0.034,-0.016 0.051,-0.023 0.09,-0.043 0.184,-0.082 0.28,-0.114 0.002,-10e-4 0.006,-0.003 0.01,-0.004 0.022,-0.005 0.041,-0.01 0.061,-0.016 0.027,-0.008 0.053,-0.015 0.079,-0.021 0.052,-0.012 0.102,-0.024 0.157,-0.032 0.018,-0.003 0.038,-0.007 0.058,-0.012 0.02,-0.002 0.041,-0.005 0.061,-0.007 0.074,-0.009 0.151,-0.013 0.23,-0.015 0.005,0 0.014,-0.001 0.022,-0.001 0.005,0 0.007,-0.001 0.007,-0.001 0.01,0 0.014,0.001 0.02,0.001 h 22.166 c 0.054,0 0.107,0.004 0.157,0.007 0.05,-0.003 0.101,-0.007 0.152,-0.007 h 22.168 c 0.006,0 0.013,-0.001 0.017,-0.001 0.003,0 0.008,0.001 0.013,0.001 0.007,0 0.013,0.001 0.021,0.001 0.077,0.002 0.154,0.006 0.23,0.015 0.02,0.002 0.04,0.005 0.061,0.007 0.018,0.005 0.038,0.009 0.057,0.012 0.053,0.008 0.106,0.02 0.158,0.032 0.025,0.006 0.052,0.013 0.077,0.021 0.021,0.006 0.043,0.011 0.063,0.016 0.002,10e-4 0.004,0.003 0.008,0.004 0.097,0.032 0.191,0.071 0.282,0.114 0.016,0.007 0.033,0.016 0.048,0.023 0.036,0.018 0.07,0.037 0.104,0.057 0.009,0.005 0.019,0.008 0.027,0.014 l 22.183,13.211 c 0.068,0.039 0.131,0.082 0.193,0.128 0.011,0.007 0.02,0.017 0.028,0.025 0.064,0.047 0.122,0.097 0.177,0.15 0.018,0.018 0.036,0.037 0.056,0.055 0.048,0.05 0.095,0.103 0.139,0.157 0.014,0.017 0.027,0.032 0.039,0.048 0.058,0.075 0.109,0.152 0.157,0.233 0.003,0.001 0.003,0.001 0.003,0.003 l 22.458,38.577 c 0.005,0.008 0.009,0.016 0.014,0.024 0.023,0.041 0.043,0.083 0.065,0.126 0.011,0.025 0.024,0.049 0.036,0.075 0.017,0.04 0.034,0.08 0.047,0.122 0.011,0.029 0.022,0.059 0.033,0.089 0.013,0.035 0.021,0.072 0.031,0.108 0.011,0.037 0.022,0.074 0.027,0.111 0.007,0.029 0.012,0.059 0.018,0.09 0.007,0.044 0.016,0.089 0.022,0.133 0.001,0.027 0.001,0.053 0.003,0.079 0.003,0.049 0.008,0.097 0.008,0.146 0,0.009 10e-4,0.017 10e-4,0.026 z"
         style="fill:#eef0f2;fill-opacity:1;fill-rule:nonzero;stroke:none;opacity:1"
         id="path308"
         inkscape:connector-curvature="0" />
    </g>
  </g>
</svg>
